
<svg width="900px" height="420px" viewBox="0 0 900 420" version="1.1" xmlns="http://www.w3.org/2000/svg" xmlns:xlink="http://www.w3.org/1999/xlink">
    <g id="Page-1" stroke="none" stroke-width="1" fill="none" fill-rule="evenodd">
        <g id="hero-img" transform="translate(0.000000, 0.000000)" fill-rule="nonzero">
            <path d="M589.715881,142.505554 L589.715881,325.496308 L245.73201,325.496308 L245.73201,142.505554 C245.73871,135.657378 248.478908,129.092631 253.349628,124.250658 C258.220347,119.407945 264.824814,116.68466 271.712903,116.677259 L563.739454,116.677259 C570.629032,116.677259 577.236476,119.400545 582.10794,124.243998 C586.979404,129.087451 589.715881,135.656638 589.715881,142.505554 Z" id="Path" fill="#D4EBDC"></path>
            <path d="M589.715881,168.909587 L589.715881,325.496308 L245.731959,325.496308 L245.731959,142.505554 C245.719355,136.190935 248.047146,130.093883 252.270223,125.377714 C264.690819,124.61549 272.21464,124.470445 272.21464,124.470445 C272.21464,124.470445 255.870223,198.085008 293.915881,241.353433 C331.961538,284.621858 555.558313,258.753602 557.816873,237.856083 C560.075434,216.959303 549.681141,174.433862 565.267742,171.676535 C571.286352,170.610161 580.590074,169.662191 589.715881,168.909587 Z" id="Path" fill="#85B6C5" opacity="0.57"></path>
            <polygon id="Path" fill="#D4EBDC" points="599.239206 289.298806 226.736725 289.298806 226.736725 339.416887 599.239206 339.416887"></polygon>
            <polygon id="Path" fill="#3FC4BC" points="572.354591 314.355996 260.347146 314.355996 260.347146 318.252219 572.354591 318.252219"></polygon>
            <path d="M579.143672,313.624853 C578.947891,313.897182 578.742432,314.14213 578.550372,314.359697 C578.517618,314.381897 578.480397,314.395218 578.440943,314.401138 C577.07196,314.763749 563.096278,314.922854 543.608189,314.963556 L542.083623,314.963556 C527.181141,314.990196 509.231017,314.963556 491.262283,314.881413 L489.769727,314.881413 C463.834243,314.77707 438.003722,314.614265 421.326551,314.500301 L419.801985,314.500301 L402.782382,314.378197 L268.829032,314.378197 C255.387097,314.378197 255.637965,308.028057 257.129777,305.564519 C257.609181,304.771214 257.321836,303.750722 256.765012,302.548184 C255.98933,300.860931 254.684367,298.824386 254.16402,296.556215 C254.046402,296.055219 253.970471,295.545343 253.935484,295.032507 C253.888586,294.240682 253.966005,293.446637 254.16402,292.677752 C254.811663,290.219395 257.590571,286.468217 260.551861,283.007127 C260.953846,282.553493 261.359553,282.063598 261.766005,281.605523 C265.261042,277.636778 268.610174,274.348114 268.610174,274.348114 L295.663772,274.456898 L297.547891,274.456898 L328.599007,274.584182 L330.602233,274.584182 L378.731762,274.783248 L381.012655,274.783248 L407.934491,274.887591 L409.631762,274.887591 L476.026303,275.15548 L477.74665,275.15548 L522.276179,275.336785 L524.356824,275.336785 L553.883375,275.459629 C553.883375,275.459629 561.763772,278.788994 567.645409,283.4245 C568.2067,283.878135 568.753846,284.331769 569.265261,284.785403 C570.416129,285.794055 571.445658,286.932951 572.331514,288.17841 C575.667246,292.93084 576.998263,298.791825 576.040943,304.507766 C575.900993,305.020602 575.836228,305.550459 575.849628,306.081795 C575.93598,306.590191 576.611166,306.53543 578.586849,308.018436 C581.078412,309.901056 580.220844,312.141847 579.143672,313.624853 Z" id="Path" fill="#306E76"></path>
            <path d="M576.177916,297.835715 L576.045409,296.351968 C575.771464,296.374909 556.374938,298.030341 541.367494,298.964991 C540.545658,295.277454 539.496774,292.193037 538.173201,290.487283 C537.502481,289.625156 536.52134,288.47812 535.335484,287.139418 C544.643672,286.744985 559.578164,285.611269 569.274194,284.831285 C568.762779,284.377651 568.215633,283.924016 567.654342,283.470382 C557.510918,284.277747 542.736476,285.384082 534.043921,285.706733 C531.337965,282.717038 527.860794,279.038382 524.365757,275.382667 L522.285112,275.382667 C525.75335,279.011001 529.261787,282.694837 532.086104,285.774075 C531.283623,285.774075 530.55335,285.805896 529.919107,285.805896 L529.86402,285.805896 C522.05732,285.805896 499.543921,284.631479 482.236228,283.633187 C480.808437,280.707875 479.261538,277.781822 477.755583,275.201361 L476.01737,275.201361 C477.450372,277.613837 478.987593,280.476247 480.502481,283.533284 C474.046154,283.161792 468.442928,282.816941 464.796774,282.576434 C458.171464,282.14574 451.304218,282.535732 439.928784,283.179553 C433.408437,283.547344 425.140943,284.018739 414.317866,284.476814 C412.866253,281.151889 411.091563,277.673039 409.622084,274.951233 L407.924814,274.951233 C409.366749,277.632338 411.200993,281.17927 412.715881,284.572277 C403.16129,284.966709 391.67196,285.357441 377.71861,285.665291 C375.771216,285.708213 373.8067,285.741514 371.822829,285.765194 C375.601489,280.585031 379.46129,275.785979 380.73871,275.037816 C380.831017,274.986014 380.915881,274.922372 380.990323,274.84689 L378.708685,274.84689 C376.66005,276.897495 373.210422,281.283613 369.947643,285.801455 C354.155583,285.973881 337.519355,285.660851 321.653598,285.089553 C322.917618,283.492583 324.241191,281.864531 325.546154,280.313442 C327.480893,278.02233 329.141687,276.158211 330.565012,274.652264 L328.561787,274.652264 C325.69206,277.772942 322.561787,281.564822 319.851365,285.030351 C309.589578,284.644799 299.669479,284.159344 290.543672,283.633187 C292.688337,280.766337 295.106948,277.627898 297.511414,274.52498 L295.627295,274.52498 C293.373201,277.428091 290.950124,280.589471 288.76005,283.538464 C278.47072,282.930165 269.23995,282.277464 261.719851,281.664725 C261.314144,282.118359 260.907692,282.571994 260.506452,283.066329 C268.69206,283.73753 278.4067,284.427232 287.691811,284.976329 C284.338213,289.511933 281.728288,293.354134 281.445409,294.560372 C281.308437,295.392158 281.257816,296.235785 281.295037,297.077931 C270.599256,296.41561 261.218114,295.717028 253.917618,295.090969 C253.960794,295.585304 254.043424,296.0752 254.16402,296.556215 C262.098759,297.232596 271.849876,297.917118 281.363524,298.525417 C281.545906,303.06102 282.298511,310.000959 282.814392,314.360437 L284.27866,314.360437 C283.712903,309.551765 283.005707,302.884154 282.818859,298.6157 L284.447643,298.715603 C291.547891,299.132976 301.130025,299.622872 312.094541,300.076506 C312.030521,304.181415 312.632754,309.525124 313.354094,314.355996 L314.868983,314.355996 C314.115633,309.366019 313.5,304.036371 313.56402,300.135708 C328.06005,300.698126 344.847395,301.128819 361.47469,301.042236 C361.223077,304.762334 361.47469,311.112474 361.620596,314.341936 L363.112407,314.341936 C362.962035,311.112474 362.715633,304.585468 362.966501,301.033356 C366.84938,301.033356 370.723325,300.960834 374.542928,300.874991 C392.077667,300.489439 405.743672,299.967722 416.57196,299.486707 C417.14665,302.41276 417.876923,305.736944 418.561042,308.844303 C418.97196,310.726922 419.409677,312.709444 419.774442,314.46478 L421.299007,314.46478 C420.974442,312.88631 420.550124,310.926728 420.020844,308.517952 C419.355335,305.487557 418.652605,302.253655 418.081638,299.400865 C425.711166,299.041953 431.889082,298.692662 436.999504,298.402573 C448.735236,297.740252 455.205707,297.373201 461.753598,297.803894 C467.146898,298.153185 476.810918,298.711163 487.205211,299.309842 C488.843672,304.031931 489.865757,308.222683 489.769727,310.931168 C489.719851,312.25581 489.724318,313.561951 489.769727,314.845892 L491.262283,314.845892 C491.225806,313.579712 491.225806,312.282451 491.262283,310.97631 C491.357568,308.354407 490.495533,304.31758 488.839206,299.391244 C504.166005,300.225991 520.647395,301.024476 527.117122,301.024476 L527.172208,301.024476 C530.073945,301.024476 534.79206,300.806909 540.180893,300.479819 C541.069727,305.258889 541.701737,310.081622 542.07469,314.927294 L543.585112,314.927294 C543.209181,310.057941 542.571216,305.213008 541.672705,300.411736 C556.68536,299.495588 575.90397,297.857916 576.177916,297.835715 Z M282.782382,297.109752 C282.745906,296.351968 282.786849,295.591964 282.905955,294.841581 C283.147146,293.816648 285.821092,289.947806 289.471712,285.030351 C297.09603,285.483985 307.239454,286.001262 318.733251,286.436396 C316.041439,289.938186 313.905707,292.936761 313.112159,294.306544 C312.573945,295.236753 312.276923,296.742701 312.158561,298.602379 C301.791811,298.176126 291.844169,297.65885 282.786849,297.109752 L282.782382,297.109752 Z M313.622829,298.651961 C313.723325,297.05055 313.969727,295.789551 314.408189,295.023626 C315.425806,293.272731 317.766253,290.033649 320.526551,286.477837 C335.370223,287.017314 352.307196,287.384365 368.893548,287.234881 C365.289082,292.329201 362.149876,297.277738 361.762035,298.92429 C361.715881,299.110035 361.679404,299.323162 361.642928,299.55923 C345.773449,299.645812 329.24665,299.278021 313.62804,298.651961 L313.622829,298.651961 Z M374.528784,299.409745 C370.791811,299.491147 366.990819,299.541469 363.148883,299.56367 C363.148883,299.463767 363.189826,299.369044 363.208437,299.282461 C363.573201,297.744692 366.990819,292.478686 370.746402,287.230441 C373.091315,287.20306 375.432506,287.162358 377.755087,287.112777 C392.000248,286.799747 403.676427,286.400134 413.345658,285.996822 C414.550124,288.845172 415.44938,291.471514 415.586352,293.23129 C415.681638,294.447148 415.942184,296.116641 416.298015,298.025901 C405.52928,298.520237 391.963772,299.028633 374.533251,299.409745 L374.528784,299.409745 Z M461.87196,296.351968 C455.228784,295.899074 448.342928,296.306827 436.931017,296.955827 C431.779653,297.245917 425.524318,297.595208 417.81737,297.957819 C417.451861,296.012298 417.187593,294.329485 417.091563,293.113626 C416.945658,291.299089 416.097022,288.723068 414.942432,285.92874 C425.501241,285.475105 433.604963,285.021471 440.038958,284.653679 C451.747146,283.992098 458.199007,283.624307 464.723821,284.05056 C468.52928,284.299948 474.461538,284.6633 481.273697,285.057732 C483.28139,289.230724 485.20273,293.676044 486.70794,297.826835 C476.54665,297.264417 467.160298,296.696819 461.876427,296.351968 L461.87196,296.351968 Z M527.190074,299.58217 L527.140199,299.58217 C520.605707,299.58217 503.805707,298.765185 488.355335,297.917118 C487.091315,294.351685 485.449132,290.38294 483.482382,286.178127 C483.326799,285.837717 483.163027,285.498046 483.026055,285.157635 C500.241439,286.146306 522.207692,287.280022 529.91464,287.285202 L529.964516,287.285202 C530.936725,287.285202 532.113648,287.285202 533.45062,287.21712 C534.993052,288.926574 536.242928,290.39182 537.046154,291.398992 C538.228288,292.90938 539.172208,295.685207 539.930025,299.056014 C534.627543,299.369044 530.033002,299.58217 527.194541,299.58217 L527.190074,299.58217 Z" id="Shape" fill="#488992"></path>
            <path d="M579.144417,313.625593 C578.925558,313.879421 578.688089,314.13769 578.441687,314.401138 C573.385608,315.716899 402.769727,314.360437 402.769727,314.360437 L268.829777,314.360437 C255.387097,314.360437 255.637965,308.009556 257.130521,305.546758 C257.609181,304.752713 257.321836,303.732221 256.765012,302.530423 C272.735732,303.664139 302.020347,305.737685 323.976923,307.279893 C355.721092,309.506623 384.289578,308.7629 399.506948,307.279893 C414.724318,305.796146 456.305955,307.030505 478.445658,307.529281 C497.495285,307.951094 557.210174,302.403139 575.808685,306.081795 C578.838462,306.681214 580.782134,307.529281 581.284615,308.685938 C581.786352,309.842594 580.983127,311.525407 579.144417,313.625593 Z" id="Path" fill="#439AA6"></path>
            <path d="M291.256079,185.919024 C290.806452,186.42372 290.390323,186.957277 290.01067,187.515994 C290.323325,186.912135 290.745409,186.370438 291.256079,185.919024 L291.256079,185.919024 Z" id="Path" fill="#FFFFFF"></path>
            <path d="M291.256079,185.919024 C290.745409,186.370438 290.323325,186.912135 290.01067,187.515994 C290.390323,186.957277 290.806452,186.42372 291.256079,185.919024 Z" id="Path" fill="#000000"></path>
            <path d="M263.326303,339.412447 L259.675682,355.914228 L248.333002,407.488675 C248.012903,408.962801 246.466749,410.032875 244.682382,410.032875 L241.077916,410.032875 C238.873697,410.032875 237.144417,408.454405 237.363275,406.630988 L243.259057,355.914228 L245.179653,339.412447 L263.326303,339.412447 Z" id="Path" fill="#85B6C5"></path>
            <path d="M590.679156,410.032875 L587.079156,410.032875 C585.253846,410.032875 583.724814,408.962801 583.400993,407.488675 L572.057568,355.914228 L568.407692,339.412447 L586.554342,339.412447 L588.474938,355.914228 L594.375186,406.630988 C594.607444,408.454405 592.88263,410.032875 590.679156,410.032875 Z" id="Path" fill="#85B6C5"></path>
            <path d="M452.860794,200.461963 C452.860794,200.461963 444.314144,181.328659 452.860794,180.821003 C461.4067,180.312607 464.021836,187.733561 469.501489,187.239226 C474.981886,186.74489 477.93871,188.232337 482.556328,189.221748 C487.173945,190.210419 510.58139,188.97236 518.548139,187.982949 C526.514888,186.994278 537.470471,188.436583 542.946402,186.09589 C548.421588,183.755936 560.622581,180.063219 559.878908,184.282092 C559.135236,188.500225 551.907692,194.428553 553.404715,199.377829 C554.900993,204.326365 552.158561,210.5137 555.147395,215.707184 C558.136228,220.900668 558.38263,246.64682 557.137221,256.299685 C555.891067,265.951809 555.708685,267.902511 559.910918,273.608831 C564.113896,279.315151 559.62804,278.077092 553.651117,277.337808 C547.673449,276.597785 539.213896,278.571427 532.492556,279.564539 C525.771216,280.55839 480.060298,272.560958 476.026303,275.196181 C471.993052,277.832144 444.305211,282.603815 449.059801,275.514391 C453.814392,268.424227 454.8134,267.929892 451.824566,258.032079 C448.836476,248.135007 452.860794,200.461963 452.860794,200.461963 Z" id="Path" fill="#F1FCF8"></path>
            <path d="M531.867995,213.04458 C531.867995,213.644739 531.688586,214.231577 531.352854,214.731093 C531.017122,215.229869 530.540695,215.619121 529.982382,215.848528 C529.424069,216.077936 528.809926,216.137877 528.218114,216.020214 C527.625558,215.90255 527.082134,215.613201 526.654839,215.188428 C526.228288,214.763654 525.937965,214.222697 525.820347,213.633638 C525.703474,213.04458 525.764516,212.434061 525.99603,211.879783 C526.228288,211.325506 526.619851,210.851891 527.122333,210.51888 C527.624814,210.18587 528.215881,210.009004 528.819603,210.009742 C529.220099,210.009742 529.616873,210.088187 529.987593,210.240631 C530.357568,210.393076 530.6933,210.617303 530.976923,210.898512 C531.259801,211.180461 531.483871,211.514952 531.637221,211.883483 C531.789826,212.251275 531.868734,212.646447 531.867995,213.04458 L531.867995,213.04458 Z" id="Path" fill="#D4EBDC"></path>
            <path d="M484.37196,210.82673 C484.37196,211.432069 484.191811,212.024088 483.853102,212.527304 C483.514392,213.031259 483.033499,213.423472 482.47072,213.655099 C481.90794,213.886726 481.288586,213.947408 480.691563,213.829745 C480.093797,213.711341 479.545161,213.419772 479.114144,212.991298 C478.683871,212.563565 478.390571,212.018167 478.271464,211.423929 C478.152357,210.82969 478.2134,210.213991 478.446402,209.654533 C478.680149,209.095075 479.07469,208.61702 479.580893,208.28105 C480.087841,207.944339 480.683375,207.764513 481.292308,207.764513 C482.108933,207.764513 482.892804,208.087163 483.469727,208.661422 C484.047395,209.23568 484.37196,210.014924 484.37196,210.82673 L484.37196,210.82673 Z" id="Path" fill="#D4EBDC"></path>
            <path d="M531.867992,250.742849 C531.868734,251.343748 531.690074,251.931327 531.355087,252.430843 C531.020099,252.930358 530.543672,253.320351 529.98536,253.550498 C529.427792,253.780645 528.813648,253.841327 528.221092,253.724403 C527.628536,253.60748 527.083623,253.318131 526.656328,252.893357 C526.229777,252.468584 525.93871,251.927627 525.821092,251.338568 C525.703474,250.74951 525.764516,250.13899 525.99603,249.583973 C526.227543,249.029695 526.619107,248.55534 527.122333,248.22233 C527.624814,247.889319 528.215881,247.712454 528.819603,247.713191 C529.62804,247.713191 530.403722,248.032144 530.97469,248.600482 C531.546402,249.16882 531.867992,249.939184 531.867992,250.742849 L531.867992,250.742849 Z" id="Path" fill="#D4EBDC"></path>
            <path d="M484.371969,248.520559 C484.373449,249.125898 484.1933,249.718657 483.855335,250.222613 C483.51737,250.726569 483.036476,251.119521 482.473697,251.351889 C481.911663,251.584996 481.291563,251.645678 480.693797,251.528014 C480.09603,251.41035 479.547395,251.119521 479.115633,250.691788 C478.684615,250.263314 478.391315,249.717917 478.271464,249.123678 C478.152357,248.529439 478.2134,247.91374 478.446402,247.354282 C478.679404,246.794085 479.073945,246.31603 479.580893,245.979319 C480.087097,245.642608 480.68263,245.462783 481.292308,245.462783 C482.108189,245.462783 482.891315,245.784693 483.468238,246.358211 C484.045906,246.931729 484.371216,247.708754 484.371969,248.520559 L484.371969,248.520559 Z" id="Path" fill="#D4EBDC"></path>
            <path d="M333.754839,196.406635 C333.754839,196.406635 325.208933,178.761518 333.754839,178.294563 C342.301489,177.826869 344.920347,184.672085 350.396278,184.21401 C355.871464,183.755936 358.832754,185.121279 363.454839,186.028547 C368.076923,186.935816 391.476179,185.79692 399.442928,184.885211 C407.409677,183.973503 418.365261,185.284084 423.840447,183.147637 C429.316377,181.011189 441.51737,177.595981 440.787097,181.478884 C440.056824,185.361786 432.806948,190.832039 434.298759,195.403903 C435.790571,199.976508 433.05335,205.668767 436.041439,210.463378 C439.030273,215.25799 439.276675,238.990539 438.031266,247.890059 C436.785856,256.78958 436.60273,258.590057 440.805707,263.852363 C445.00794,269.113929 440.522829,267.970593 434.549628,267.286071 C428.577171,266.60081 420.10794,268.433848 413.409677,269.340376 C406.711414,270.247645 360.981886,262.885892 356.943424,265.312429 C352.905707,267.739706 325.226799,272.143585 329.976923,265.607698 C334.727047,259.071072 335.730521,258.612998 332.741687,249.48703 C329.753598,240.360322 333.754839,196.406635 333.754839,196.406635 Z" id="Path" fill="#F1FCF8"></path>
            <path d="M412.762779,208.005021 C412.812655,208.61554 412.677171,209.226799 412.37196,209.759616 C412.067494,210.292433 411.607444,210.720907 411.053598,210.989535 C410.499752,211.258164 409.877419,211.354367 409.266998,211.265564 C408.65732,211.176761 408.088586,210.907392 407.635236,210.491499 C407.18263,210.076346 406.866253,209.534649 406.727792,208.93745 C406.58933,208.340251 406.635484,207.715672 406.859553,207.145114 C407.084367,206.574556 407.477419,206.08466 407.9866,205.739069 C408.495782,205.394218 409.098015,205.209953 409.714392,205.210693 C410.491563,205.179612 411.248635,205.45712 411.820347,205.981057 C412.391315,206.504994 412.730769,207.232436 412.762779,208.005021 L412.762779,208.005021 Z" id="Path" fill="#D4EBDC"></path>
            <path d="M362.187097,208.798326 C363.888089,208.798326 365.266749,207.535846 365.266749,205.977357 C365.266749,204.418868 363.888089,203.155648 362.187097,203.155648 C360.486104,203.155648 359.1067,204.418868 359.1067,205.977357 C359.1067,207.535846 360.486104,208.798326 362.187097,208.798326 Z" id="Path" fill="#D4EBDC"></path>
            <path d="M412.762779,242.746157 C412.812655,243.356676 412.677171,243.967936 412.37196,244.500752 C412.067494,245.033569 411.607444,245.462043 411.053598,245.730671 C410.499752,245.9993 409.877419,246.095503 409.266998,246.0067 C408.65732,245.917897 408.088586,245.648529 407.635236,245.232635 C407.18263,244.817482 406.866253,244.275785 406.727792,243.678586 C406.58933,243.081388 406.635484,242.456808 406.859553,241.88625 C407.084367,241.315692 407.477419,240.825796 407.9866,240.480206 C408.495782,240.135355 409.098015,239.951089 409.714392,239.951829 C410.490819,239.922228 411.247146,240.199737 411.818859,240.723673 C412.389826,241.24687 412.72928,241.974313 412.762779,242.746157 Z" id="Path" fill="#D4EBDC"></path>
            <path d="M365.266005,240.718493 C365.316625,241.334192 365.178908,241.951372 364.871464,242.487889 C364.56402,243.025146 364.100248,243.457319 363.541191,243.728168 C362.982878,243.999017 362.354591,244.09596 361.739702,244.006417 C361.124814,243.916874 360.550868,243.645285 360.093797,243.226432 C359.636725,242.807579 359.31737,242.261442 359.177419,241.659063 C359.037469,241.057424 359.083623,240.426924 359.309926,239.851186 C359.535484,239.275448 359.930769,238.781112 360.444417,238.432561 C360.95732,238.08401 361.564764,237.897524 362.186352,237.896784 C362.970968,237.866443 363.735484,238.146172 364.313151,238.675289 C364.890074,239.203665 365.233251,239.938508 365.266005,240.718493 L365.266005,240.718493 Z" id="Path" fill="#D4EBDC"></path>
            <path d="M255.474194,182.766525 C255.474194,182.766525 257.879404,170.710064 265.098015,171.676535 C272.315881,172.642265 283.148635,173.209123 283.650372,177.191929 C284.152109,181.174734 274.601985,223.622474 286.780645,242.682515 C298.959305,261.742556 310.963772,266.441705 304.575931,271.141593 C298.188089,275.840741 279.634988,282.77624 273.981886,277.826964 C268.32804,272.878428 253.407692,252.879297 253.904963,221.90784 C254.402233,190.935642 255.474194,182.766525 255.474194,182.766525 Z" id="Path" fill="#439AA6"></path>
            <path d="M271.543921,174.085311 C270.112407,177.55972 269.338958,181.267237 269.262283,185.021376 C269.079901,191.458099 262.874442,199.817403 263.353846,205.887074 C263.832506,211.956006 269.94268,219.649288 269.262283,227.569018 C268.58263,235.488748 266.589082,236.726807 270.326055,241.925471 C274.063027,247.123395 278.702978,248.85653 280.118114,254.793737 C281.532506,260.731684 280.783623,265.680221 285.762283,270.138861 C290.740199,274.598242 293.263772,274.84319 291.237469,271.871996 C289.211911,268.900802 284.498263,266.178996 284.995533,261.475408 C285.492804,256.77182 282.454094,248.5435 280.118114,245.980059 C277.78139,243.417358 272.068734,242.859381 271.320596,236.336815 C270.572457,229.814249 276.654342,223.735697 273.985608,218.360908 C271.316129,212.985378 267.852357,209.701894 267.588089,204.929484 C267.323077,200.157813 267.451117,200.629948 269.262283,195.680672 C270.798759,191.647545 271.581141,187.36947 271.571464,183.057354 C271.571464,179.319496 271.543921,174.085311 271.543921,174.085311 Z" id="Path" fill="#306E76"></path>
            <path d="M555.161538,130.190086 C552.423573,133.569032 534.514392,131.360063 533.601737,134.726429 C532.689082,138.092055 534.514392,148.487903 531.512159,148.878635 C528.509181,149.268628 526.28263,140.568173 527.861538,134.072988 C529.440447,127.577063 541.969727,130.443914 546.806948,128.488772 C551.643424,126.53437 550.858809,116.772722 549.544169,116.772722 L505.384615,116.772722 C505.384615,116.772722 505.119603,118.6139 504.855335,121.603595 C504.590323,124.592549 504.207692,133.033995 505.247643,136.281958 C506.288337,139.52992 506.94938,143.30848 504.727295,145.507829 C502.505211,147.707918 500.548139,144.60056 497.426799,137.520017 C494.305459,130.439474 497.426799,116.781603 497.426799,116.781603 L454.686104,116.781603 C454.686104,116.781603 454.823077,113.951013 455.735732,113.429297 C456.648387,112.90832 464.487097,111.483775 467.598759,111.506716 C469.830521,111.506716 478.810422,109.664798 483.801737,108.589544 C485.82804,108.13591 487.197022,107.850261 487.197022,107.850261 C487.197022,107.850261 493.338462,96.5464041 500.657568,94.2108904 C507.976675,91.8746367 527.829529,86.8076969 544.420347,97.3271288 C561.011166,107.845821 557.90397,126.810399 555.161538,130.190086 Z" id="Path" fill="#859DC5"></path>
            <path d="M499.406948,109.705499 L497.408189,116.786783 L477.947643,116.786783 C491.531762,115.588685 483.824814,108.594724 483.824814,108.594724 L499.406948,109.705499 Z" id="Path" fill="#596BA3"></path>
            <path d="M478.727792,94.9953152 C478.727792,94.9953152 474.808437,85.923369 476.377667,86.7669956 C477.947643,87.6106222 484.344417,91.8746367 484.344417,91.8746367 C484.344417,91.8746367 488.136476,86.6811529 493.228288,87.5884215 C498.320844,88.4956901 499.762779,91.3573604 501.200248,90.0600995 C502.637717,88.7628385 506.557072,86.431765 506.557072,87.8511298 C506.557072,89.2712346 504.074442,94.2012701 504.466749,94.9953152 C504.859801,95.7893602 505.63995,99.5316583 506.557072,100.706075 C507.474194,101.881232 505.771712,105.773015 503.298759,107.723717 C500.825806,109.673678 492.585112,112.395484 489.190571,111.229947 C485.795285,110.063671 473.676923,103.305037 476.01737,100.320523 C478.357816,97.336009 479.640447,97.1998448 478.727792,94.9953152 Z" id="Path" fill="#9BB5DA"></path>
            <path d="M505.384615,116.786783 L506.808685,110.889537 C506.808685,110.889537 508.747891,114.395767 519.12804,115.271215 C529.508933,116.146663 546.857568,116.05194 546.761538,114.691037 C546.665509,113.330134 545.191563,110.889537 545.191563,110.889537 L549.53598,116.786783 L505.384615,116.786783 Z" id="Path" fill="#596BA3"></path>
            <path d="M490.46799,104.180485 C490.46799,104.180485 488.009181,103.159993 488.675434,102.915045 C489.340943,102.670097 492.480893,102.670097 492.480893,102.915045 C492.480893,103.159993 491.056824,104.135344 490.46799,104.180485 Z" id="Path" fill="#5996A3"></path>
            <path d="M485.842184,102.552434 C484.324318,102.204623 482.767742,102.052178 481.210422,102.098799 C480.832258,102.098799 480.832258,102.697478 481.210422,102.684158 C482.714888,102.632356 484.219355,102.772221 485.687345,103.101531 C486.052109,103.187374 486.211414,102.624956 485.842184,102.539113 L485.842184,102.552434 Z" id="Path" fill="#D4EBDC"></path>
            <path d="M484.299007,103.935537 C482.871216,104.00806 481.452357,104.122023 480.032754,104.280388 C479.663524,104.321089 479.659057,104.906448 480.032754,104.865747 C481.452357,104.706642 482.871216,104.593418 484.299007,104.520896 C484.673449,104.520896 484.677916,103.917777 484.299007,103.935537 Z" id="Path" fill="#D4EBDC"></path>
            <path d="M485.248883,104.870187 C484.693548,105.085534 484.192556,105.418544 483.779404,105.845538 C483.216625,106.345053 482.682134,106.87491 482.178164,107.432888 C481.922829,107.709656 482.337469,108.12703 482.593548,107.845821 C483.008189,107.392186 483.436973,106.938552 483.8933,106.535239 C484.308685,106.062364 484.824566,105.687173 485.403722,105.437045 C485.473697,105.411884 485.531762,105.361562 485.566005,105.2957 C485.600248,105.229838 485.608437,105.154356 485.588337,105.082573 C485.568983,105.011531 485.523573,104.950109 485.460298,104.910888 C485.397767,104.871667 485.321836,104.856866 485.248883,104.870187 L485.248883,104.870187 Z" id="Path" fill="#D4EBDC"></path>
            <path d="M495.355087,103.028269 C496.680893,102.7626 498.049876,102.804782 499.356328,103.151113 C499.431514,103.171093 499.511911,103.161473 499.579653,103.122992 C499.64665,103.08525 499.696526,103.021608 499.71737,102.946866 C499.737469,102.872124 499.727792,102.792941 499.689082,102.725599 C499.650372,102.658257 499.587097,102.608675 499.511911,102.588695 C498.103474,102.217943 496.62804,102.174282 495.199504,102.461411 C494.825806,102.533933 494.985112,103.100791 495.355087,103.028269 Z" id="Path" fill="#D4EBDC"></path>
            <path d="M495.351365,104.534956 C497.554839,105.383023 500.000993,105.328261 502.150124,106.349493 C502.487345,106.507858 502.788834,106.004643 502.446402,105.845538 C500.247395,104.797664 497.760298,104.833926 495.506203,103.968098 C495.154839,103.831934 495,104.398792 495.351365,104.530516 L495.351365,104.534956 Z" id="Path" fill="#D4EBDC"></path>
            <path d="M494.886104,105.636851 C496.44268,106.399075 497.758065,107.572752 498.687097,109.029858 C498.887345,109.347328 499.398759,109.052799 499.1933,108.735329 C498.215136,107.1909 496.827543,105.943961 495.182382,105.133635 C494.844417,104.96565 494.548139,105.469606 494.886104,105.636851 L494.886104,105.636851 Z" id="Path" fill="#D4EBDC"></path>
            <path d="M494.451365,106.902291 C494.421588,106.86085 494.382878,106.825328 494.338958,106.799428 C494.295037,106.772787 494.245906,106.755026 494.195285,106.746886 C494.143921,106.739486 494.091811,106.742446 494.041935,106.755026 C493.99206,106.767607 493.945161,106.789807 493.904218,106.820888 C493.904218,106.820888 492.667742,107.728157 491.672457,107.19682 C491.065757,106.88379 490.906452,105.732314 490.883375,104.902008 C490.883375,104.784344 490.883375,104.680001 490.883375,104.584538 C490.883375,104.489075 490.883375,104.312209 490.883375,104.216746 C490.892308,104.113883 490.859553,104.01176 490.7933,103.933317 C490.726303,103.854135 490.631017,103.804553 490.527543,103.794933 C490.527543,103.794933 490.491067,103.794933 490.472457,103.794933 C490.454591,103.794933 490.43598,103.794933 490.418114,103.794933 C490.31464,103.804553 490.219355,103.854135 490.152357,103.933317 C490.08536,104.01176 490.05335,104.113883 490.062283,104.216746 C490.062283,104.307769 490.062283,104.429873 490.062283,104.570477 C490.062283,104.711082 490.062283,104.788784 490.062283,104.915328 C490.039206,105.745634 489.87469,106.88379 489.272457,107.1835 C488.282382,107.696336 487.054839,106.811268 487.041439,106.806828 C487.000496,106.776487 486.953598,106.753546 486.902978,106.740966 C486.853102,106.728385 486.801737,106.726165 486.750372,106.733566 C486.699752,106.740966 486.65062,106.758726 486.6067,106.785367 C486.562035,106.812008 486.524069,106.847529 486.493548,106.88897 C486.432506,106.971853 486.406452,107.075456 486.422084,107.17758 C486.436973,107.279703 486.492804,107.371466 486.576179,107.432888 C487.167246,107.848041 487.865509,108.087808 488.588337,108.122589 C488.951613,108.125549 489.310422,108.040447 489.633499,107.873202 C489.617866,107.757018 489.628288,107.639354 489.662531,107.527611 C489.696774,107.416607 489.754094,107.313004 489.831514,107.225681 C489.909677,107.137618 490.004963,107.067316 490.111414,107.019215 C490.21861,106.971113 490.334739,106.946692 490.452357,106.946692 C490.569231,106.946692 490.68536,106.971113 490.792556,107.019215 C490.899752,107.067316 490.995037,107.137618 491.072457,107.225681 C491.149876,107.313004 491.20794,107.416607 491.242184,107.527611 C491.276427,107.639354 491.286104,107.757018 491.271216,107.873202 C491.595782,108.039707 491.955335,108.125549 492.320844,108.122589 C493.043672,108.087808 493.741935,107.848041 494.333002,107.432888 C494.41861,107.377386 494.478164,107.290803 494.500496,107.19164 C494.522829,107.092477 494.504963,106.988874 494.451365,106.902291 L494.451365,106.902291 Z" id="Path" fill="#5996A3"></path>
            <path d="M483.39603,97.9665089 C484.821588,98.9492599 486.537469,99.4280551 488.268983,99.3274119 C489.022333,99.2822705 489.026799,98.1159937 488.268983,98.157435 C486.747395,98.2565981 485.236973,97.8355248 483.98933,96.9645173 C483.36402,96.5375239 482.775186,97.5535759 483.39603,97.9753892 L483.39603,97.9665089 Z" id="Path" fill="#5996A3"></path>
            <path d="M495.086352,99.522778 C496.711414,99.7040838 498.344665,99.2593297 499.649628,98.2795388 C500.247395,97.8259045 499.649628,96.8142926 499.056328,97.2679269 C497.925558,98.1285741 496.499256,98.5119062 495.086352,98.3343005 C494.333747,98.2477178 494.34268,99.4184348 495.086352,99.5042775 L495.086352,99.522778 Z" id="Path" fill="#5996A3"></path>
            <path d="M240.742928,42.1266411 C241.747891,36.1622749 237.699007,30.5173028 231.699752,29.5181233 C225.699752,28.5189437 220.02134,32.5440047 219.016377,38.5083709 C218.01067,44.4727371 222.059553,50.1177092 228.059553,51.1168887 C234.059553,52.1160683 239.737965,48.0910073 240.742928,42.1266411 Z" id="Path" fill="#A7D5CA"></path>
            <path d="M155.766998,410.409547 L131.040447,410.409547 C130.457568,410.409547 129.879901,410.295584 129.340943,410.073577 C128.801985,409.850829 128.312159,409.525959 127.899752,409.115246 C127.487345,408.705273 127.160546,408.218338 126.937965,407.681821 C126.71464,407.146044 126.600744,406.571786 126.600744,405.991608 L126.600744,405.991608 C126.600744,404.820891 127.068983,403.698275 127.901241,402.870929 C128.734243,402.042843 129.863524,401.578108 131.040447,401.578108 L155.766998,401.578108 C156.945409,401.578108 158.07469,402.042843 158.908437,402.870189 C159.741439,403.698275 160.210422,404.820891 160.211166,405.991608 C160.211166,407.163065 159.742928,408.28716 158.909926,409.115986 C158.076179,409.944072 156.946154,410.409547 155.766998,410.409547 Z" id="Path" fill="#D4EBDC"></path>
            <path d="M146.390323,401.595869 L140.417866,401.595869 L140.417866,34.0998298 C140.426055,25.928714 143.695533,18.0948268 149.508685,12.3178346 C155.321836,6.54087189 163.202978,3.29287981 171.422829,3.28687822 L209.728288,3.28687822 L209.728288,9.22446296 L171.422829,9.22446296 C164.788586,9.23171519 158.427543,11.854802 153.736973,16.5182811 C149.045658,21.1817602 146.4067,27.5046677 146.399256,34.0998298 L146.390323,401.595869 Z" id="Path" fill="#A7D5CA"></path>
            <path d="M203.207196,6.83404694 C186.808437,18.6502884 183.23598,42.2147039 193.794045,62.1730596 C195.715385,65.8018381 199.922084,67.3757937 202.559553,65.4706776 L259.459057,24.46998 C262.100993,22.569378 261.895533,18.1195436 259.030273,15.1621143 C243.256079,-1.00412497 219.6067,-4.98672343 203.207196,6.83404694 Z" id="Path" fill="#D4EBDC"></path>
            <path d="M703.856576,221.018331 C703.856576,221.018331 725.804218,198.043567 729.363275,156.920469 C732.922333,115.796632 727.994293,81.5957124 721.424069,66.9671529 C714.853102,52.3385933 708.54268,43.5659865 708.54268,43.5659865 C708.54268,43.5659865 702.643176,87.8193088 700.297519,137.551838 C697.951861,187.284367 703.856576,221.018331 703.856576,221.018331 Z" id="Path" fill="#73A1AF"></path>
            <path d="M703.728536,221.353562 L703.779156,221.353562 C703.827543,221.365891 703.878164,221.369103 703.92804,221.361702 C703.977916,221.354302 704.025558,221.337282 704.06799,221.310641 C704.110422,221.28474 704.147643,221.249959 704.176675,221.208517 C704.204963,221.167816 704.225062,221.121195 704.235484,221.072353 C704.344913,220.596518 714.944665,173.145481 717.340199,139.819269 C719.735732,106.493798 714.871712,88.2048609 714.821092,88.0228152 C714.791315,87.9332724 714.727295,87.85779 714.643176,87.8126486 C714.558313,87.7683795 714.46005,87.7564068 714.367742,87.7815676 C714.275434,87.8067284 714.196526,87.8659302 714.14665,87.9473328 C714.096774,88.0279954 714.080397,88.1249384 714.100496,88.2181814 C714.150372,88.3994871 718.982382,106.54782 716.596526,139.765248 C714.209926,172.981936 703.601241,220.446293 703.496278,220.936189 C703.478412,221.022032 703.492556,221.111574 703.534988,221.187797 C703.577419,221.264019 703.64665,221.323221 703.728536,221.353562 L703.728536,221.353562 Z" id="Path" fill="#507F8D"></path>
            <path d="M724.467246,245.558246 C726.917866,244.791582 752.471464,202.679073 762.930521,178.919883 C773.389578,155.159954 773.389578,152.560992 773.389578,152.560992 C773.389578,152.560992 746.64268,194.868126 730.554342,219.013608 C714.465261,243.15835 724.467246,245.558246 724.467246,245.558246 Z" id="Path" fill="#507F8D"></path>
            <path d="M706.776923,239.04382 C706.384615,223.453748 697.080893,203.168968 711.627543,164.8624 C726.173449,126.556571 750.826303,113.964334 750.826303,113.964334 C750.826303,113.964334 724.30794,151.059484 722.076179,191.529881 C719.845161,231.999538 724.814144,242.900082 724.814144,242.900082 L706.776923,239.04382 Z" id="Path" fill="#9DC8B8"></path>
            <path d="M710.705211,269.45804 C711.741439,271.871256 711.020099,191.543201 704.673201,161.841624 C698.326303,132.140047 681.521092,116.772722 681.521092,116.772722 C681.521092,116.772722 688.356328,217.435138 710.705211,269.45804 Z" id="Path" fill="#507F8D"></path>
            <path d="M709.747146,285.787395 C709.747146,285.787395 688.616129,253.164946 676.853598,245.558246 L665.085856,237.951546 C665.085856,237.951546 668.343424,261.057295 682.776179,274.561241 C697.208189,288.064447 709.747146,285.787395 709.747146,285.787395 Z" id="Path" fill="#73A1AF"></path>
            <path d="M710.035236,285.865098 C710.035236,285.865098 702.934988,267.580601 715.437469,246.361171 C727.93995,225.141742 743.914392,210.037125 753.878412,205.024947 C759.543424,202.128495 765.439206,199.701219 771.513648,197.766798 C771.513648,197.766798 759.521092,221.272899 743.015881,246.301969 C726.511414,271.331779 710.035236,285.865098 710.035236,285.865098 Z" id="Path" fill="#9DC8B8"></path>
            <path d="M709.998015,286.073044 L709.961538,286.073044 C709.802233,286.027903 709.706203,285.900619 709.747146,285.791835 C709.847643,285.524687 719.690323,258.943788 730.166501,241.906231 C740.64268,224.869413 750.751861,217.506921 750.856079,217.434398 C750.923077,217.392957 750.990074,217.370016 751.064516,217.370016 C751.138958,217.370016 751.2134,217.392957 751.272953,217.434398 C751.30273,217.450679 751.325062,217.47362 751.33995,217.501 C751.354839,217.527641 751.362283,217.557982 751.362283,217.589063 C751.362283,217.620144 751.354839,217.650485 751.33995,217.677126 C751.325062,217.704507 751.30273,217.726708 751.272953,217.742988 C751.176179,217.81551 741.135484,225.118801 730.695782,242.101597 C720.256079,259.084393 710.404467,285.646791 710.30397,285.927999 C710.276427,285.982021 710.231017,286.025683 710.175931,286.052323 C710.120844,286.078224 710.058313,286.085624 709.998015,286.073044 Z" id="Path" fill="#507F8D"></path>
            <path d="M702.770471,285.111754 C702.770471,285.111754 714.287345,258.758042 704.46402,222.619742 C694.63995,186.481442 679.741935,158.875611 669.579901,148.438321 C659.41861,138.001032 651.291811,132.480458 651.291811,132.480458 C651.291811,132.480458 660.098263,172.007325 673.650372,215.103325 C687.202481,258.200065 702.770471,285.111754 702.770471,285.111754 Z" id="Path" fill="#9DC8B8"></path>
            <path d="M702.771216,285.447724 L702.816625,285.447724 C702.860546,285.441804 702.902978,285.427744 702.940943,285.405543 C702.979653,285.383342 703.013151,285.354481 703.03995,285.31896 C703.066749,285.284179 703.086104,285.244218 703.09727,285.201297 C703.107548,285.159115 703.11067,285.114714 703.10397,285.071052 C703.048883,284.617418 697.249876,240.92644 688.872208,211.796901 C680.494541,182.666621 670.620596,168.582497 670.534243,168.446333 C670.480645,168.377511 670.403226,168.331629 670.316873,168.319049 C670.231266,168.305728 670.143424,168.325709 670.07196,168.37603 C670.000496,168.425612 669.951365,168.501094 669.934988,168.586197 C669.917866,168.67056 669.934988,168.758623 669.981886,168.831885 C670.077916,168.972489 679.869975,182.94339 688.233499,211.978206 C696.597022,241.013022 702.378164,284.717321 702.44665,285.156895 C702.457816,285.236078 702.495782,285.30786 702.555335,285.361142 C702.614888,285.414423 702.690819,285.444764 702.771216,285.447724 L702.771216,285.447724 Z" id="Path" fill="#507F8D"></path>
            <path d="M708.036476,285.079933 C708.036476,285.079933 695.337469,256.017736 706.165012,216.169698 C716.9933,176.320921 733.428536,145.86156 744.632754,134.371958 C755.843672,122.882355 764.799007,116.772722 764.799007,116.772722 C764.799007,116.772722 755.091811,160.358618 740.158809,207.877737 C725.228784,255.396856 708.036476,285.079933 708.036476,285.079933 Z" id="Path" fill="#BDDECE"></path>
            <path d="M708.036476,285.446984 L707.9866,285.446984 C707.937469,285.441064 707.890571,285.425524 707.848139,285.401103 C707.805707,285.376682 707.768486,285.344121 707.73871,285.3049 C707.708933,285.266419 707.687345,285.222017 707.67469,285.174656 C707.662779,285.127294 707.659801,285.078453 707.667246,285.029611 C707.726055,284.549336 714.123573,236.354575 723.358809,204.230162 C732.594045,172.106488 743.472208,156.602999 743.581638,156.430574 C743.609926,156.390612 743.645658,156.356571 743.687345,156.33067 C743.729032,156.30403 743.775186,156.287009 743.823573,156.278869 C743.87196,156.270729 743.921836,156.272209 743.969479,156.283309 C744.017122,156.295149 744.061787,156.31513 744.101985,156.343991 C744.182382,156.400973 744.237469,156.486815 744.254591,156.583758 C744.271712,156.680701 744.250124,156.780605 744.192804,156.861267 C744.083375,157.010752 733.287841,172.415078 724.079404,204.434408 C714.871712,236.454479 708.469727,284.644059 708.406452,285.125074 C708.393052,285.213877 708.349132,285.29528 708.28139,285.353741 C708.213648,285.412943 708.126551,285.446984 708.036476,285.446984 L708.036476,285.446984 Z" id="Path" fill="#507F8D"></path>
            <path d="M675.356576,356.008951 L672.367742,406.984719 C672.344665,407.388772 672.404218,407.793565 672.543424,408.173937 C672.68263,408.553569 672.898511,408.90212 673.177667,409.195909 C673.457568,409.490438 673.794789,409.725026 674.168486,409.885611 C674.542184,410.045456 674.944913,410.128338 675.352109,410.128338 L677.985112,410.128338 C678.741439,410.127598 679.470223,409.841949 680.023325,409.328373 C680.575682,408.814797 680.912159,408.111775 680.964268,407.361391 L684.505459,356.008951 L675.356576,356.008951 Z" id="Path" fill="#5996A3"></path>
            <path d="M728.090323,356.008951 L731.083623,406.984719 C731.107444,407.388772 731.047146,407.793565 730.90794,408.173937 C730.768734,408.553569 730.552854,408.90212 730.273697,409.195909 C729.993797,409.490438 729.65732,409.725026 729.282878,409.885611 C728.909181,410.045456 728.506452,410.12834 728.099256,410.12834 L725.466253,410.12834 C724.709181,410.129078 723.980397,409.843429 723.427295,409.329113 C722.874194,408.815537 722.537717,408.111775 722.487097,407.361391 L718.941439,356.008951 L728.090323,356.008951 Z" id="Path" fill="#5996A3"></path>
            <path d="M729.77866,278.557367 L676.205211,278.557367 C674.18933,278.557367 672.555335,280.181718 672.555335,282.186441 L672.555335,287.960844 C672.555335,289.964827 674.18933,291.589178 676.205211,291.589178 L729.77866,291.589178 C731.794541,291.589178 733.428536,289.964827 733.428536,287.960844 L733.428536,282.186441 C733.428536,280.181718 731.794541,278.557367 729.77866,278.557367 Z" id="Path" fill="#D4EBDC"></path>
            <path d="M702.524069,291.593618 L676.852854,291.593618 L680.357568,350.28931 C680.859305,358.712256 687.758561,365.289583 696.099752,365.289583 L708.952854,365.289583 C717.294045,365.289583 724.1933,358.712256 724.695037,350.28931 L728.199752,291.593618 L702.524069,291.593618 Z" id="Path" fill="#85B6C5"></path>
            <path d="M736.915385,294.80976 L667.202978,294.80976 C666.44665,294.80976 665.833995,295.418799 665.833995,296.170663 L665.833995,298.397393 C665.833995,299.149257 666.44665,299.758296 667.202978,299.758296 L736.915385,299.758296 C737.670968,299.758296 738.283623,299.149257 738.283623,298.397393 L738.283623,296.170663 C738.283623,295.418799 737.670968,294.80976 736.915385,294.80976 Z" id="Path" fill="#5996A3"></path>
            <path d="M736.915385,351.055974 L667.202978,351.055974 C666.44665,351.055974 665.833995,351.665014 665.833995,352.416877 L665.833995,354.643608 C665.833995,355.395471 666.44665,356.004511 667.202978,356.004511 L736.915385,356.004511 C737.670968,356.004511 738.283623,355.395471 738.283623,354.643608 L738.283623,352.416877 C738.283623,351.665014 737.670968,351.055974 736.915385,351.055974 Z" id="Path" fill="#5996A3"></path>
            <polygon id="Path" fill="#5996A3" points="669.566501 299.763476 670.875931 351.055974 676.849132 351.055974 674.608437 299.763476"></polygon>
            <polygon id="Path" fill="#5996A3" points="735.482382 299.763476 734.177419 351.055974 728.199752 351.055974 730.440447 299.763476"></polygon>
            <path d="M684.519603,303.909087 C684.519603,303.909087 720.871712,302.920416 721.368983,306.630893 C721.866998,310.34063 717.385608,343.258348 715.145658,344.732475 C712.904963,346.207341 687.010422,346.216222 686.015881,344.732475 C685.02134,343.249468 680.275682,302.920416 684.519603,303.909087 Z" id="Path" fill="#D4EBDC" opacity="0.42"></path>
            <path d="M893.888337,417.659556 L6.11111166,417.659556 C4.49034491,417.659556 2.93595782,417.268824 1.78990571,416.573202 C0.643847643,415.87758 0,414.93405 0,413.950559 L0,413.950559 C0,412.967808 0.64653871,412.025758 1.79239206,411.330876 C2.93824318,410.636734 4.49156576,410.246742 6.11111166,410.246742 L893.888337,410.246742 C895.511166,410.246742 897.059553,410.636734 898.205955,411.330876 C899.352357,412.025758 900,412.967808 900,413.950559 L900,413.950559 C900,414.93405 899.359801,415.87758 898.2134,416.573202 C897.066998,417.268824 895.511166,417.659556 893.888337,417.659556 L893.888337,417.659556 Z" id="Path" fill="#85B6C5"></path>
            <path d="M549.221092,400.090662 C549.067742,400.089922 548.915136,400.103982 548.764764,400.131363 C548.784864,399.998899 548.795285,399.865694 548.796774,399.73249 C548.796774,398.239863 547.473201,397.010684 545.812407,396.965543 C545.812407,396.130797 544.744913,395.455155 543.430273,395.455155 C543.113151,395.455155 542.797519,395.495857 542.490819,395.577259 C542.525062,395.501777 542.543672,395.419634 542.545161,395.336752 C542.545161,394.837976 541.938462,394.429483 541.176923,394.429483 C541.112903,394.429483 541.05335,394.429483 540.98933,394.429483 C541.018362,394.311079 541.033995,394.188975 541.034739,394.066871 C541.034739,392.878394 539.6933,391.911923 538.032506,391.911923 C536.79603,391.911923 535.751613,392.4477 535.295285,393.218805 C535.007196,392.903555 534.654342,392.654167 534.260546,392.486922 C533.866749,392.318936 533.441687,392.237534 533.013648,392.247894 C532.553598,392.236794 532.096526,392.333737 531.681141,392.529843 C531.265012,392.725949 530.900993,393.016038 530.618114,393.37717 C530.540695,392.727429 530.216873,392.13171 529.713648,391.709897 C529.210422,391.288824 528.564268,391.073477 527.906948,391.108258 C527.249628,391.143039 526.630273,391.424988 526.17469,391.896383 C525.719107,392.368518 525.460794,392.995318 525.452605,393.649498 C525.452605,393.69908 525.452605,393.744961 525.452605,393.794543 C525.205459,393.69316 524.937469,393.653938 524.671712,393.680579 C524.405955,393.70648 524.15062,393.797503 523.92804,393.944768 C523.705459,394.092032 523.523077,394.291839 523.39727,394.525686 C523.27072,394.760273 523.203722,395.021502 523.202978,395.28717 C522.533747,395.205027 521.85335,395.262009 521.207196,395.455155 C520.561042,395.648301 519.961787,395.972432 519.448139,396.407565 C518.982134,396.285461 518.501985,396.22478 518.019603,396.22626 C515.779653,396.22626 513.958809,397.473199 513.958809,399.010967 C513.958809,400.548736 515.784119,401.786795 517.987593,401.796415 C518.338958,402.774726 518.994789,403.616133 519.859057,404.199271 C520.724069,404.78241 521.753598,405.076199 522.79727,405.039198 C523.841687,405.001456 524.84665,404.634405 525.666998,403.991325 C526.487345,403.347504 527.080645,402.461696 527.359801,401.460445 C527.946402,401.424184 528.509926,401.219197 528.981886,400.870646 C529.453102,400.522095 529.812655,400.04478 530.015881,399.496423 C530.015881,399.528244 530.015881,399.560065 530.015881,399.591886 C530.015136,399.999639 530.128288,400.399251 530.343424,400.747062 C530.557816,401.094873 530.865261,401.376082 531.231514,401.560348 C531.597022,401.745354 532.00794,401.824536 532.416625,401.791235 C532.82531,401.757194 533.216873,401.61141 533.547395,401.369422 C534.081141,401.706133 534.71464,401.851917 535.342928,401.783835 C535.971216,401.715013 536.557816,401.436764 537.005955,400.99349 C537.105707,400.98979 537.204715,400.97943 537.302978,400.961669 C537.686352,401.404943 538.165012,401.757194 538.703226,401.993262 C539.241439,402.228589 539.826551,402.341073 540.41464,402.322572 C541.411414,402.344033 542.382878,402.009542 543.152605,401.379042 C543.463027,401.739434 543.850124,402.027303 544.284864,402.222669 C544.720347,402.418035 545.193797,402.514978 545.670968,402.508318 C546.105707,402.509058 546.53598,402.427655 546.939454,402.26781 C547.029529,402.796187 547.311663,403.272762 547.732258,403.607252 C548.152854,403.941743 548.682878,404.111208 549.221092,404.082347 C550.480645,404.082347 551.50273,403.175079 551.50273,402.086505 C551.50273,400.99793 550.480645,400.090662 549.221092,400.090662 Z" id="Path" fill="#7B969A"></path>
            <path d="M505.124814,410.032875 L510.011911,401.732033 C510.570223,400.781103 511.369727,399.992238 512.330025,399.443881 C513.291067,398.895524 514.379404,398.606913 515.487097,398.606913 L549.923077,398.606913 C551.058313,398.606175 552.17196,398.908104 553.14938,399.480882 C554.126799,400.05366 554.932258,400.876566 555.480893,401.863757 L560.044169,410.028435 L505.124814,410.032875 Z" id="Path" fill="#A7D5CA"></path>
            <path d="M267.209181,318.25666 C267.209181,318.25666 267.958065,335.733791 291.949876,335.733791 C315.941687,335.733791 543.653598,335.280157 551.041191,333.206611 C558.42804,331.133806 561.53598,318.238159 561.53598,318.238159 L572.33598,318.238159 L582.725806,339.398387 L247.922084,339.398387 L260.347146,318.238159 L267.209181,318.25666 Z" id="Path" fill="#85B6C5" opacity="0.57"></path>
            <g id="Group" opacity="0.5" transform="translate(304.197022, 282.858383)" fill="#3FC4BC">
                <path d="M128.678412,11.8566541 C199.745658,11.8566541 257.357568,9.20219035 257.357568,5.92832705 C257.357568,2.65372373 199.745658,-5.60872763e-14 128.678412,-5.60872763e-14 C57.6111663,-5.60872763e-14 0,2.65372373 0,5.92832705 C0,9.20219035 57.6111663,11.8566541 128.678412,11.8566541 Z" id="Path"></path>
            </g>
            <path d="M413.784119,93.7979574 C413.784119,93.7979574 395.053846,103.459702 392.909181,107.242702 C390.764516,111.025701 385.900496,117.516446 387.296278,118.977252 C388.692804,120.438058 390.162283,121.313506 391.403226,118.428155 C392.644169,115.543544 394.23201,110.04591 397.517866,108.15441 C400.802978,106.262911 411.443672,101.962635 414.323077,98.7464936 C417.201737,95.5303521 415.412903,92.9402704 413.784119,93.7979574 Z" id="Path" fill="#1E2D44"></path>
            <path d="M399.265012,235.525009 C399.265012,235.525009 426.705707,222.633802 433.427047,219.39472 C440.148387,216.156378 446.659801,213.67508 450.218859,215.457796 C453.777916,217.240512 460.348139,218.1204 461.584615,219.222295 C462.821836,220.32493 471.705707,230.145039 488.136476,245.027649 C504.567246,259.910259 521.943424,270.10704 530.52134,274.148308 C539.1,278.190315 539.752109,276.289935 545.123077,276.665867 C550.4933,277.042539 558.273201,279.945651 561.667742,278.689091 C565.063027,277.432531 566.924069,277.69598 567.143672,278.294659 C567.362531,278.893338 561.836725,282.957546 559.276675,284.131963 C556.71737,285.30712 541.134491,283.034508 537.986352,285.334501 C534.838213,287.633753 519.314888,293.009283 515.723821,289.539313 C512.132754,286.069344 514.099504,280.371904 510.116129,278.625449 C506.132754,276.878994 487.39727,273.876719 475.118859,265.216966 C462.839702,256.557953 453.987841,248.506499 450.620099,248.610842 C447.253102,248.715185 405.62531,276.039807 399.584367,274.806189 C393.54268,273.57257 379.534988,242.233321 399.265012,235.525009 Z" id="Path" fill="#E4867D"></path>
            <path d="M348.534491,252.271738 C348.534491,252.271738 396.07072,227.695562 401.158065,233.805195 C406.246154,239.915568 409.983127,279.773225 408.390819,282.244903 C406.797767,284.717321 351.768983,294.741678 346.968983,280.934322 C342.168983,267.126966 348.534491,252.271738 348.534491,252.271738 Z" id="Path" fill="#1E3B44"></path>
            <path d="M421.713648,255.428677 C421.420347,256.571273 420.999007,257.676868 420.459305,258.726221 C417.265012,265.217706 409.777667,286.124106 406.596774,291.072642 C406.441935,291.31759 406.269975,291.550697 406.081638,291.771224 C403.284119,294.923723 404.589082,290.655269 384.608189,287.870561 C364.627295,285.085113 347.881638,284.413912 347.881638,284.413912 C347.881638,284.413912 347.452109,270.053019 351.745906,256.870983 C356.039702,243.689687 368.364268,246.660881 370.189578,246.438874 C372.014888,246.216127 412.246154,250.185612 416.539206,250.371358 C420.030521,250.525282 422.658313,251.414791 421.713648,255.428677 Z" id="Path" fill="#35525E"></path>
            <path d="M319.195533,181.641689 C319.195533,181.641689 330.894789,173.526593 335.621836,169.811676 C340.349628,166.096759 348.320844,160.100349 353.549628,154.312627 C358.779156,148.524164 369.232258,141.847673 374.461787,136.649009 C379.690571,131.451085 397.367494,117.094632 398.362035,113.629103 C399.345409,109.997069 400.593052,106.440516 402.094541,102.987567 C403.591563,99.7714259 404.335236,98.0390312 404.335236,98.0390312 C404.335236,98.0390312 415.541687,110.168014 415.286352,113.134768 C415.030273,116.101521 360.530769,176.497787 352.773945,184.168129 C345.017122,191.838471 324.142184,197.014194 322.398759,195.911559 C320.656079,194.809665 319.195533,181.641689 319.195533,181.641689 Z" id="Path" fill="#E4867D"></path>
            <path d="M295.819355,192.383128 C295.819355,192.383128 321.435484,174.516004 323.196774,177.23707 C324.958065,179.958876 335.146898,202.978782 332.408933,206.938647 C329.671712,210.898512 317.716377,216.097176 315.476427,214.608989 C313.235732,213.121542 295.819355,192.383128 295.819355,192.383128 Z" id="Path" fill="#4181B0"></path>
            <path d="M274.095037,178.271623 C274.095037,178.271623 266.164764,177.85943 259.438958,173.155101 C252.713151,168.451513 245.12531,163.007901 241.388337,151.006202 C237.651365,139.003764 238.773945,132.195549 246.115385,123.409252 C253.456824,114.622954 273.75335,113.883671 276.490571,110.908037 C279.228536,107.932403 279.853846,104.34921 280.473945,105.342322 C281.094789,106.335433 280.473945,111.651761 280.473945,111.651761 C280.473945,111.651761 285.037221,107.074716 283.873697,103.854875 C282.710174,100.634293 283.837221,101.382457 284.955335,101.999636 C286.072705,102.616076 294.756328,107.691896 295.709926,118.582819 C296.663524,129.473743 291.055831,130.462414 291.055831,130.462414 C291.055831,130.462414 289.243921,176.892959 274.095037,178.271623 Z" id="Path" fill="#1E2D44"></path>
            <path d="M300.765261,192.727979 C302.033747,195.068673 303.384864,196.705604 303.384864,196.914291 C303.384864,197.054895 302.399256,197.535911 300.610422,198.053187 C295.918362,199.302346 291.054342,199.795942 286.205211,199.513993 C277.718114,199.10994 274.341439,197.867441 275.391067,195.580769 C275.703722,194.97691 276.125806,194.435213 276.636476,193.984538 L276.678164,193.943097 C277.366749,193.294837 277.677171,192.310606 277.727047,191.139889 C277.91464,187.134882 275.085112,180.929787 274.077171,178.271623 C273.914888,177.902351 273.800993,177.513099 273.739206,177.114966 C273.739206,175.754063 275.851861,175.132444 276.477171,173.776721 C277.102481,172.420258 275.979901,168.333109 275.48263,166.47343 C274.98536,164.613752 273.611911,165.235371 268.989082,165.729707 C264.366998,166.224043 261.287345,158.798648 263.618859,154.715939 C265.950372,150.633971 274.36005,154.715939 274.36005,154.715939 C274.36005,154.715939 276.477171,156.449074 277.599752,155.954739 C278.722333,155.460403 274.113648,142.219905 274.113648,142.219905 C274.113648,142.219905 273.862779,138.999324 275.605459,137.515577 C277.348883,136.03257 281.08139,135.538234 283.522333,135.039459 C285.963275,134.539943 291.041687,130.462414 291.041687,130.462414 C291.041687,130.462414 297.512159,140.237383 297.142184,142.464853 C296.841439,144.246829 297.653598,147.050778 299.337469,149.499515 C299.744665,150.098194 300.202481,150.661352 300.706452,151.183068 L300.769727,151.25041 C303.384864,153.972216 303.758561,158.181469 304.133002,161.152663 C304.5067,164.123856 303.334243,170.224609 301.641439,173.898825 C300.044665,177.336973 297.658065,177.114966 297.407196,177.609302 C297.156328,178.103637 298.155335,181.074831 298.652605,186.395599 C298.73598,187.239226 298.901241,188.073232 299.145409,188.885778 C299.245906,189.226188 299.359801,189.565859 299.478908,189.892949 C299.838462,190.86756 300.26799,191.81479 300.765261,192.727979 L300.765261,192.727979 Z" id="Path" fill="#F8A28F"></path>
            <path d="M299.145409,188.885778 C299.145409,188.885778 295.540199,188.749613 290.060546,184.662464 C284.671712,180.644138 280.478412,174.584086 280.354839,174.39316 C280.473945,174.447922 282.321588,175.300429 285.456328,176.497787 C288.69603,177.732146 297.406452,177.609302 297.406452,177.609302 C297.16005,178.103637 298.155335,181.074831 298.652605,186.395599 C298.735236,187.239226 298.900496,188.073232 299.145409,188.885778 L299.145409,188.885778 Z" id="Path" fill="#CF6257"></path>
            <path d="M292.310174,144.410374 C292.916873,145.875621 292.734491,147.345307 291.903722,147.690158 C291.073697,148.035009 289.89603,147.11812 289.28933,145.648433 C288.68263,144.178747 288.860546,142.709061 289.695782,142.36939 C290.530273,142.028979 291.698263,142.940688 292.310174,144.410374 Z" id="Path" fill="#1E2D44"></path>
            <path d="M299.145409,154.312627 C299.078412,154.313367 299.011414,154.296346 298.95335,154.262305 C298.869231,154.210504 298.808189,154.128361 298.784367,154.032158 C298.760546,153.935955 298.775434,153.834572 298.826055,153.749469 C299.560794,152.529911 300.103474,151.173448 299.957568,150.905559 C299.532506,150.520747 299.07469,150.172936 298.588586,149.867307 C297.929777,149.440313 297.300744,148.970398 296.704467,148.460522 C295.581886,147.44447 295.723325,143.679971 295.741191,143.253718 C295.743424,143.204876 295.756079,143.156775 295.776923,143.112373 C295.797767,143.067972 295.827543,143.028751 295.86402,142.99545 C295.900496,142.962889 295.942928,142.937728 295.989082,142.920707 C296.035236,142.904427 296.084367,142.897027 296.133499,142.899987 C296.232506,142.904427 296.324814,142.947348 296.391811,143.01987 C296.458065,143.091653 296.493797,143.187116 296.490074,143.285539 C296.421588,144.764105 296.55335,147.322366 297.206203,147.912165 C297.777916,148.4028 298.379404,148.857175 299.008437,149.273068 C299.555583,149.610518 300.067742,150.000511 300.536725,150.438605 C301.153102,151.123866 300.13995,153.060507 299.478164,154.153522 C299.441687,154.206803 299.391811,154.249725 299.333002,154.277106 C299.274938,154.305227 299.210174,154.317067 299.145409,154.312627 L299.145409,154.312627 Z" id="Path" fill="#CF6257"></path>
            <path d="M298.054839,162.291559 C296.188586,162.291559 294.774194,160.844813 294.710174,160.781171 C294.675931,160.74639 294.648387,160.705688 294.629032,160.660547 C294.610422,160.615406 294.600744,160.566564 294.600744,160.517723 C294.600744,160.468881 294.610422,160.420779 294.629032,160.375638 C294.648387,160.330497 294.675931,160.289055 294.710174,160.255014 C294.745161,160.220233 294.78536,160.192852 294.830769,160.174352 C294.875434,160.155851 294.923821,160.146231 294.972953,160.146231 C295.02134,160.146231 295.069727,160.155851 295.115136,160.174352 C295.159801,160.192852 295.200744,160.220233 295.234988,160.255014 C295.234988,160.255014 296.60397,161.615917 298.187345,161.529334 C299.258561,161.427211 300.266501,160.975797 301.052605,160.245394 C301.126303,160.171392 301.226055,160.12847 301.331017,160.12698 C301.43598,160.12625 301.536476,160.166211 301.611663,160.238734 C301.686849,160.311996 301.730025,160.411159 301.730809,160.515502 C301.732258,160.619846 301.69206,160.719749 301.618362,160.794491 C300.700496,161.655878 299.517618,162.184255 298.260298,162.295999 L298.054839,162.291559 Z" id="Path" fill="#CF6257"></path>
            <path d="M284.995533,142.160703 C284.963524,140.704337 286.391315,139.960614 287.518362,139.379696 C288.157816,139.044465 287.59206,138.082435 286.952605,138.418405 C285.447395,139.19839 283.83201,140.269204 283.877419,142.160703 C283.890074,142.299088 283.954094,142.427852 284.057568,142.521835 C284.161042,142.615818 284.296526,142.668359 284.436476,142.668359 C284.576427,142.668359 284.711911,142.615818 284.81464,142.521835 C284.918114,142.427852 284.982878,142.299088 284.995533,142.160703 L284.995533,142.160703 Z" id="Path" fill="#1E2D44"></path>
            <path d="M474.302233,284.444993 C473.804963,288.78597 466.832754,298.60682 465.090074,301.80002 C463.34665,304.993221 432.971464,379.210903 430.234243,384.690776 C427.496278,390.169909 427.496278,392.451401 427.993548,394.732892 C428.490819,397.014384 433.719603,402.045063 437.703722,407.524936 C441.687097,413.004069 453.016377,416.315673 455.257072,415.630412 C457.497022,414.94515 460.234988,416.20171 459.363275,417.79868 C458.492308,419.395651 452.64268,419.613218 450.401985,419.966949 C448.16129,420.32068 435.088586,417.79868 431.237717,414.147405 C427.386849,410.49539 416.180397,409.692464 412.443424,406.952898 C408.705707,404.213332 403.358561,404.898593 406.465757,399.41872 C409.572953,393.939587 413.811663,386.060559 416.800496,381.728462 C419.78933,377.396365 422.030025,336.291769 429.248635,323.731352 C436.466501,311.170936 440.067246,297.463483 440.067246,297.463483 C440.067246,297.463483 420.661042,294.651395 406.598263,288.319015 C409.791811,283.751591 417.288834,264.464362 420.46005,258.476833 C420.997519,257.514803 421.418859,256.493571 421.715136,255.433117 C427.500744,257.315737 435.905955,260.177407 441.189826,262.526981 C449.900248,266.414324 453.637221,268.923003 459.363275,269.608265 C465.090074,270.292786 474.800248,280.108456 474.302233,284.444993 Z" id="Path" fill="#F8A28F"></path>
            <path d="M429.220347,127.028706 C429.220347,127.028706 422.868983,157.841798 437.24665,162.66823 C451.624318,167.493923 452.933747,152.643134 455.735732,156.544537 C458.536973,160.4452 447.330521,169.349161 440.787097,169.349161 C434.244417,169.349161 426.642432,162.853976 424.287841,153.759089 C421.933251,144.664942 424.53871,127.586684 425.474442,124.801236 C426.409429,122.016528 429.745161,123.921348 429.220347,127.028706 Z" id="Path" fill="#1E2D44"></path>
            <path d="M413.811663,124.243258 C413.811663,124.243258 406.237221,131.500667 407.085856,136.122853 C407.934491,140.745039 404.347891,150.787896 399.237469,153.201112 C394.127047,155.614328 389.633002,156.375812 392.621092,158.027544 C395.609926,159.678536 398.407444,159.138319 404.197519,156.725103 C409.987593,154.312627 420.623821,149.821425 423.818114,135.379129 C427.012407,120.936834 413.811663,124.243258 413.811663,124.243258 Z" id="Path" fill="#1E2D44"></path>
            <path d="M428.659057,136.309339 C422.682134,148.928217 420.445906,153.015366 413.729777,160.068528 C407.012903,167.121691 399.903722,176.960301 397.30273,174.733571 C394.701737,172.506101 398.982134,169.534907 404.398511,163.393453 C409.814144,157.252 410.184119,146.687426 409.627295,138.522749 C409.070471,130.358071 410.001737,132.952593 412.054839,129.05637 C414.10794,125.159407 414.486849,110.458103 412.054839,106.920051 C409.622829,103.382 403.649628,100.465568 403.098015,100.506269 C402.545658,100.54771 396.139206,92.3193908 396.139206,92.3193908 C396.139206,92.3193908 391.508189,92.1284647 391.508189,87.1162866 C391.532754,86.1808971 391.7866,85.2654882 392.247395,84.4492424 L392.247395,84.4492424 C392.29727,84.3856004 392.703722,83.8365031 393.246402,82.9344147 C394.066005,81.6334536 394.815633,80.2903112 395.491563,78.9109077 C397.070471,75.7036465 403.636228,75.6496248 403.910174,75.6496248 C404.192308,75.4320579 404.3933,75.1271683 404.480397,74.7830575 C404.854839,73.2044397 406.44268,66.7996116 406.255087,65.7790454 C406.068238,64.7584052 409.522333,68.7500911 410.083623,72.1838735 C410.644913,75.6178038 410.996278,74.1296168 412.698015,76.8240419 C414.400496,79.5184669 412.241687,83.2289439 413.816129,85.2699283 C415.390571,87.3116528 431.465509,90.0963606 434.805707,101.232232 C438.145906,112.368103 434.632258,123.68528 428.659057,136.309339 Z" id="Path" fill="#35435E"></path>
            <path d="M424.133002,101.132329 C424.133002,101.132329 422.020347,105.092934 421.317618,106.208149 C420.614888,107.324104 417.037221,110.412962 416.417122,110.66309 C415.796278,110.912477 419.031514,106.948172 420.400496,104.475754 C421.351861,102.687118 421.574442,100.603212 421.02134,98.6562107 C420.774938,97.9169274 420.026055,99.649322 418.990571,101.749508 C417.954342,103.849695 414.550868,107.19312 414.550868,107.19312 C415.469479,106.100106 416.308437,104.943449 417.060298,103.732031 C417.808437,102.371128 418.42928,98.9055986 418.926551,97.1724639 C419.423821,95.4400692 417.557568,96.923076 416.440199,99.522038 C415.878908,100.828919 414.495782,102.570934 412.963027,104.32627 C413.460298,103.242135 415.244665,99.2230686 414.377419,98.9144789 C413.396278,98.5563076 409.074938,108.635426 409.074938,108.635426 L408.596278,109.179343 C406.026551,112.206778 404.373201,115.897275 403.828288,119.820878 C403.330273,123.780743 386.648635,136.526906 375.323077,146.79621 C363.998263,157.066254 361.634739,161.39761 359.13871,163.874468 C356.64268,166.351327 351.436228,169.811676 345.335732,173.178042 C341.530273,175.281188 337.871464,177.638163 334.384615,180.231205 L336.999752,204.362626 C336.999752,204.362626 361.274442,186.912875 365.941935,184.685405 C370.610174,182.458675 381.255335,168.537356 389.468486,157.401484 C397.681638,146.265613 407.720099,127.885653 409.572953,126.030414 C411.425062,124.175176 415.673449,123.059961 418.164268,120.587543 C420.655831,118.115125 423.763027,115.888394 424.013896,113.783768 C424.265509,111.679142 421.523077,113.411536 419.779653,114.523051 C418.036973,115.634566 423.019355,108.335716 424.137469,106.358374 C425.255583,104.380291 424.133002,101.132329 424.133002,101.132329 Z" id="Path" fill="#F8A28F"></path>
            <path d="M359.280893,253.224148 C348.954342,260.141146 351.36402,274.20307 349.762035,280.961703 C349.703226,281.215531 349.639206,281.451598 349.57072,281.683226 C349.301241,282.739239 348.713896,283.688689 347.886849,284.404291 L347.886849,284.404291 C344.6933,286.949232 337.569975,284.472374 321.686352,281.683226 C307.998015,279.051703 283.221588,257.42896 273.885856,231.872994 C266.507196,211.670357 272.539206,199.708619 275.396278,195.585209 C275.708189,194.98135 276.131017,194.439653 276.641687,193.988979 L276.68263,193.947537 C276.908189,193.208254 277.060794,192.44899 277.138958,191.680106 C277.367494,191.480299 277.563275,191.298994 277.732258,191.153949 C278.137965,190.804658 278.366501,190.618172 278.366501,190.618172 C281.524318,189.829307 290.147643,191.525441 295.829032,192.400889 C297.316377,192.628076 298.60273,192.790881 299.529529,192.854523 C299.945658,192.867103 300.361787,192.832322 300.770471,192.75018 C305.073201,191.988696 314.222084,187.348009 319.633251,185.039136 C321.394541,184.282092 322.754591,183.769256 323.434243,183.714494 C324.294789,183.552429 325.11737,183.234219 325.861787,182.775405 C329.36129,180.893525 334.458313,176.969922 336.416129,178.779279 C336.490571,178.854021 336.560546,178.932464 336.626055,179.015346 C337.738958,180.489473 339.221836,185.878323 340.248387,191.593523 C340.844665,194.777104 341.234739,197.995465 341.416377,201.227887 C341.549628,202.89738 341.445409,204.577233 341.1067,206.217864 C339.614144,211.660736 335.133499,213.892647 332.893548,215.130706 C332.437221,215.385274 332.053846,215.58434 331.7933,215.724944 L331.597519,215.861109 L331.597519,215.884049 C330.999752,216.391705 331.971216,216.83646 335.913648,219.331078 C338.925558,221.236638 346.294541,226.502645 353.357568,231.891495 C356.921836,234.6133 360.412407,237.334366 363.213648,239.720202 C364.970471,241.195068 366.462283,242.51897 367.534988,243.589784 C368.501985,244.481512 369.40273,245.440582 370.231266,246.461074 C371.728288,248.642663 367.616873,247.626611 359.280893,253.224148 Z" id="Path" fill="#5F8AA2"></path>
            <path d="M353.316625,231.873734 C352.860298,231.873734 315.900744,230.327085 313.468734,230.140599 C311.187097,229.968174 329.292804,217.440319 331.555831,215.866289 C330.958065,216.373945 331.930273,216.818699 335.872705,219.313318 C338.883871,221.218878 346.252854,226.484884 353.316625,231.873734 Z" id="Path" fill="#2C647C"></path>
            <path d="M410.795285,95.5806737 C410.795285,95.5806737 397.904963,112.191238 397.563275,116.518894 C397.220844,120.845811 395.564516,128.765541 397.448635,129.514444 C399.333499,130.262608 401.035236,130.421713 400.957816,127.286974 C400.880397,124.152975 399.963275,118.500677 402.13995,115.407379 C404.315881,112.314082 412.118859,103.954038 413.382878,99.839508 C414.646898,95.7257182 411.908933,94.1243077 410.795285,95.5806737 Z" id="Path" fill="#35435E"></path>
            <path d="M393.241191,82.9114739 C392.680645,83.8187426 392.292804,84.3633997 392.242184,84.4263017 C392.531017,83.8934849 392.865261,83.3865689 393.241191,82.9114739 L393.241191,82.9114739 Z" id="Path" fill="#FFFFFF"></path>
            <path d="M393.241191,82.9114739 C392.865261,83.3865689 392.531017,83.8934849 392.242184,84.4263017 C392.292804,84.3633997 392.698511,83.8143024 393.241191,82.9114739 Z" id="Path" fill="#000000"></path>
            <path d="M393.857568,85.1796455 C395.468486,84.3448992 397.183623,84.2405559 398.96799,84.2405559 C399.041687,84.2405559 399.112407,84.211695 399.165261,84.1598933 C399.21737,84.1080917 399.246402,84.0370494 399.246402,83.9637871 C399.246402,83.8905248 399.21737,83.8202226 399.165261,83.768421 C399.112407,83.7166193 399.041687,83.6870184 398.96799,83.6870184 C397.079404,83.6870184 395.276427,83.8143024 393.57469,84.6986303 C393.255335,84.8621755 393.538213,85.3431907 393.857568,85.1796455 Z" id="Path" fill="#D4EBDC"></path>
            <path d="M393.611911,86.4857867 L397.216377,87.193249 C397.567742,87.2665113 397.718859,86.7403547 397.363027,86.6582121 L393.762283,85.9507498 C393.410918,85.8782275 393.260546,86.4043841 393.611911,86.4857867 Z" id="Path" fill="#D4EBDC"></path>
            <path d="M394.058561,88.0694367 C395.101489,88.5267711 396.083375,89.1099095 396.983375,89.8062715 C397.266253,90.0238383 397.663027,89.633846 397.380149,89.411839 C396.451117,88.6895762 395.43871,88.080537 394.364516,87.5973018 C394.03995,87.4478171 393.752605,87.9288322 394.081638,88.078317 L394.058561,88.0694367 Z" id="Path" fill="#D4EBDC"></path>
            <path d="M397.366749,80.4079749 C397.088337,80.8616092 396.609677,81.1154373 396.290323,80.9341315 C395.970223,80.7528258 395.938958,80.2214891 396.212159,79.745654 C396.486104,79.269079 396.969975,79.0381917 397.28933,79.2194974 C397.608685,79.4008032 397.640695,79.9313999 397.366749,80.4079749 Z" id="Path" fill="#1E2D44"></path>
            <path d="M392.740199,83.705519 C392.740199,83.705519 389.819851,84.7075106 390.50397,87.5566005 C391.188834,90.4049504 392.475186,92.2735093 396.125806,92.3327112 C399.775682,92.3919131 395.833251,91.2123158 393.912655,89.2349734 C391.991315,87.256891 392.740199,83.705519 392.740199,83.705519 Z" id="Path" fill="#35435E"></path>
            <path d="M396.125806,92.3327112 C396.125806,92.3327112 400.510422,93.149697 401.815385,93.1992785 C403.120347,93.2488601 408.167494,87.5566005 408.167494,87.5566005 C408.167494,87.5566005 405.73995,92.7323238 403.919107,94.0791663 C402.098263,95.4267488 398.703722,95.5806737 398.703722,95.5806737 L396.125806,92.3327112 Z" id="Path" fill="#1E2D44"></path>
            <path d="M330.757072,391.81276 C330.757072,391.81276 331.245409,399.927116 331.546898,401.692072 C331.847643,403.456288 332.459553,405.774041 334.106203,407.279988 C335.753598,408.785936 336.985608,410.1831 338.176675,410.391787 C339.367742,410.600473 344.564516,410.391787 344.883871,409.938152 C345.203226,409.484518 345.646154,409.289892 345.449628,408.387063 C345.253846,407.484235 344.01737,407.32143 342.958809,406.930697 C341.900248,406.540705 340.220844,406.659109 339.285112,405.538713 C338.350124,404.418318 337.309429,402.141266 337.428536,401.129654 C337.546898,400.118042 339.582134,390.451857 339.582134,390.451857 C339.582134,390.451857 332.267494,383.167068 330.757072,391.81276 Z" id="Path" fill="#F08156"></path>
            <path d="M287.979901,365.680316 C287.979901,365.680316 281.889082,367.367569 279.401985,371.576822 C276.914888,375.786815 268.546898,388.913349 267.469727,390.020424 C266.3933,391.127499 255.268734,397.849131 254.237717,401.405683 C253.205955,404.962235 253.160546,407.96007 255.195782,409.470457 C257.231017,410.980845 257.773697,410.790659 258.645409,408.418144 C259.517122,406.046369 259.183623,402.24487 260.356079,401.791235 C261.52928,401.337601 271.047395,396.625132 277.599752,395.064423 C284.152109,393.503714 293.254839,386.446111 294.505459,384.708536 C295.755335,382.971701 287.979901,365.680316 287.979901,365.680316 Z" id="Path" fill="#F08156"></path>
            <path d="M378.203226,369.131785 C378.997519,368.393981 379.989082,367.897426 381.059553,367.70354 C381.191315,367.70354 381.132506,367.485233 381.004467,367.508174 C379.899007,367.71094 378.875434,368.225996 378.056576,368.99118 C377.96129,369.082203 378.107196,369.222808 378.203226,369.131785 L378.203226,369.131785 Z" id="Path" fill="#3FC4BC"></path>
            <path d="M379.14268,369.259069 C380.014392,369.077763 380.91737,369.108844 381.774938,369.350092 C381.898511,369.395233 381.948387,369.195427 381.825558,369.150285 C380.950124,368.905338 380.028536,368.872777 379.137469,369.054822 C379.010174,369.054822 379.010174,369.272389 379.137469,369.259069 L379.14268,369.259069 Z" id="Path" fill="#3FC4BC"></path>
            <path d="M379.151613,369.699383 C379.833499,369.968751 380.449132,370.380944 380.956824,370.907841 C381.465261,371.434737 381.853102,372.063017 382.095037,372.751979 C382.13598,372.874823 382.336973,372.820061 382.291563,372.692777 C382.042928,371.978655 381.642432,371.325214 381.118362,370.777597 C380.594293,370.229979 379.957816,369.800026 379.252109,369.518077 C379.12928,369.467755 379.028784,369.644621 379.151613,369.694942 L379.151613,369.699383 Z" id="Path" fill="#3FC4BC"></path>
            <path d="M376.578164,374.511754 C375.36402,375.686912 371.933002,375.133374 370.645906,374.879546 L370.473201,374.856605 C370.396526,374.852165 370.320596,374.852165 370.244665,374.856605 C370.045161,374.860305 369.850124,374.920247 369.683375,375.029031 C368.268983,375.396822 364.896774,376.290031 362.337469,377.152158 C361.326551,377.454087 360.35062,377.8611 359.426055,378.367276 C358.744169,378.659585 358.124814,379.078439 357.600744,379.601635 C356.04938,381.125343 349.488089,386.205603 349.488089,386.205603 C349.488089,386.205603 358.586352,393.817484 359.070223,394.420603 C359.554094,395.023722 360.895533,398.271684 361.351861,400.172064 C361.808189,402.072444 360.512159,403.388206 359.302481,404.766869 C358.093548,406.146273 355.916873,407.139384 354.675931,406.477063 C353.434988,405.814742 354.379653,405.052518 354.967742,403.410406 C355.556576,401.769034 355.657072,399.654788 354.466005,398.040057 C353.274938,396.425326 345.704963,394.438363 341.52134,393.894446 C339.143672,393.556995 336.964764,392.389979 335.37469,390.601342 C335.196774,390.401536 335.105955,390.274252 335.091811,390.256491 C335.091811,390.256491 333.339454,391.920804 324.314144,392.819192 C315.288834,393.71758 306.610422,390.927692 306.26799,391.100118 C305.925558,391.272543 303.393052,395.182827 301.983127,396.8612 C300.573201,398.538833 300.103474,399.341758 300.117618,400.090662 C300.131017,400.838825 301.837221,404.762429 303.37072,406.37272 C304.903474,407.983011 307.386104,408.826637 308.627047,409.212189 C309.86799,409.597742 311.784864,409.706525 311.82134,411.407839 C311.857816,413.108412 307.112159,412.369129 305.537717,412.39651 C303.96402,412.423891 293.67469,406.953638 292.063772,405.329287 C290.452854,403.705676 291.607444,397.577542 290.854839,394.320699 C290.101489,391.063857 287.103722,391.385767 283.553598,383.542999 C280.004218,375.700232 284.922581,369.971711 284.922581,369.971711 C285.730273,368.792114 284.539206,363.507607 280.405459,357.724325 C276.271712,351.941042 273.962531,341.08194 274.898263,335.411881 C275.833251,329.741822 279.488337,323.219256 286.396526,322.561375 C293.304715,321.903495 293.989578,326.19045 293.606203,327.754859 C293.222829,329.320009 287.605459,325.332763 283.695037,329.143143 C279.784615,332.953523 279.291811,340.174671 282.134739,346.325745 C284.977667,352.476079 292.989826,360.840563 294.094541,361.38522 C295.198511,361.929137 299.953102,359.379757 307.089082,360.214503 C314.225806,361.04925 318.218114,361.942458 321.234491,361.620548 C324.250124,361.298638 341.507196,361.421481 342.876179,361.398541 C344.245161,361.3756 349.37866,361.226115 351.167494,361.670869 C352.955583,362.114883 359.499007,360.173802 359.836973,360.169362 C360.174194,360.164922 360.585112,359.679466 361.045906,358.808459 C361.5067,357.937452 363.327543,355.02546 364.135236,354.944057 C364.942928,354.861914 366.489082,356.60837 366.9134,357.420175 C367.337717,358.232721 367.333251,357.87381 367.607196,357.747266 C367.881141,357.619982 370.801489,353.13396 371.225806,352.852751 C371.650124,352.571542 371.709677,357.343213 372.407196,358.295623 C373.105459,359.248773 372.407196,358.295623 373.516377,359.026026 C374.624814,359.756429 375.824814,361.847735 376.824566,364.283152 C377.823573,366.719309 379.293052,368.465764 379.516377,369.549898 C379.740447,370.634032 377.791563,373.332897 376.578164,374.511754 Z" id="Path" fill="#FAAE61"></path>
            <path d="M379.306452,369.586159 C379.306452,369.586159 377.76402,369.454435 377.677667,369.6128 C377.591315,369.771905 378.590323,371.767748 378.781638,371.572382 C378.973697,371.377756 379.790323,369.93027 379.306452,369.586159 Z" id="Path" fill="#3FC4BC"></path>
            <path d="M375.181638,371.268972 C374.146154,371.676725 373.11067,372.13998 372.594789,373.187113 C372.03871,374.399271 371.82134,375.737233 371.965012,377.061135 C371.965012,377.188419 372.179404,377.188419 372.170471,377.061135 C372.046898,375.882278 372.202481,374.6901 372.626799,373.582285 C373.11067,372.402688 374.091067,371.912792 375.223325,371.468038 C375.341687,371.418457 375.2866,371.223091 375.163772,371.273412 L375.181638,371.268972 Z" id="Path" fill="#3FC4BC"></path>
            <path d="M375.729529,371.853591 C374.680645,372.737178 373.97196,373.955997 373.727047,375.301359 C373.699504,375.427903 373.899752,375.482665 373.922829,375.350941 C374.165509,374.04184 374.854839,372.856322 375.876179,371.994195 C375.975931,371.912792 375.825558,371.767748 375.729529,371.853591 L375.729529,371.853591 Z" id="Path" fill="#3FC4BC"></path>
            <path d="M376.32804,372.923664 C375.515136,373.477202 375.209926,374.388911 374.959057,375.291739 C374.547395,376.716284 374.242928,378.16821 374.046402,379.637156 C374.046402,379.76444 374.228784,379.818462 374.242184,379.687478 C374.4067,378.47828 374.64268,377.280182 374.94938,376.099105 C375.227792,375.037911 375.483871,373.753971 376.450868,373.09609 C376.555831,373.023568 376.450868,372.846702 376.341439,372.923664 L376.32804,372.923664 Z" id="Path" fill="#3FC4BC"></path>
            <path d="M373.485112,365.726197 C373.485112,366.242734 373.224566,366.664547 372.887345,366.674167 C372.54938,366.683047 372.266501,366.261234 372.257568,365.766899 C372.247891,365.272563 372.51737,364.827809 372.855335,364.823369 C373.192556,364.818929 373.475434,365.208921 373.485112,365.726197 Z" id="Path" fill="#3FC4BC"></path>
            <path d="M370.2134,374.843285 C370.013151,374.846985 369.818859,374.906187 369.652109,375.01571 L369.652109,375.01571 C368.237717,375.382762 364.865509,376.27671 362.305459,377.138097 C358.144169,373.631867 358.199237,369.744524 358.199237,369.744524 C358.199237,369.744524 360.101985,372.942165 362.647891,373.827233 C364.883375,374.575396 369.150372,374.797403 370.2134,374.843285 Z" id="Path" fill="#F08156"></path>
            <path d="M349.44268,386.192283 C349.44268,386.192283 342.005211,379.714859 342.840447,380.295037 C343.674938,380.875955 353.371712,383.116746 353.371712,383.116746 L349.44268,386.192283 Z" id="Path" fill="#F08156"></path>
            <path d="M335.055335,390.237991 C335.055335,390.237991 333.303722,391.903043 324.277667,392.800692 C315.252357,393.69908 306.573945,390.909192 306.231514,391.081617 L308.654591,384.341485 C308.654591,384.341485 311.66129,392.052528 321.850124,391.145259 C332.039702,390.237991 334.279653,384.608633 334.421092,384.880962 C334.562531,385.15329 333.422084,388.63658 335.055335,390.237991 Z" id="Path" fill="#F08156"></path>
            <path d="M335.343424,390.588022 C335.165509,390.388215 335.073945,390.260931 335.060546,390.243171 C335.166253,390.348254 335.260794,390.463698 335.343424,390.588022 Z" id="Path" fill="#FFFFFF"></path>
            <path d="M335.060546,390.243171 C335.060546,390.243171 335.165509,390.388215 335.343424,390.588022 C335.260794,390.463698 335.166253,390.348254 335.060546,390.243171 L335.060546,390.243171 Z" id="Path" fill="#000000"></path>
            <path d="M246.658065,180.816563 L220.261787,180.816563 C212.701489,180.816563 206.573449,186.909175 206.573449,194.424112 L206.573449,325.804898 C206.573449,333.319835 212.701489,339.412447 220.261787,339.412447 L246.658065,339.412447 C254.218362,339.412447 260.347146,333.319835 260.347146,325.804898 L260.347146,194.424112 C260.347146,186.909175 254.218362,180.816563 246.658065,180.816563 Z" id="Path" fill="#D4EBDC"></path>
            <path d="M612.434739,180.816563 L586.038462,180.816563 C578.478164,180.816563 572.34938,186.909175 572.34938,194.424112 L572.34938,325.804898 C572.34938,333.319835 578.478164,339.412447 586.038462,339.412447 L612.434739,339.412447 C619.995037,339.412447 626.123821,333.319835 626.123821,325.804898 L626.123821,194.424112 C626.123821,186.909175 619.995037,180.816563 612.434739,180.816563 Z" id="Path" fill="#D4EBDC"></path>
            <path d="M237.550868,204.239782 C237.550868,204.239782 234.19206,282.258964 233.443921,278.321299 C232.695782,274.384375 234.812903,216.310303 230.889082,213.910407 C226.964516,211.511251 224.249628,204.248662 224.249628,204.248662 L237.550868,204.239782 Z" id="Path" fill="#85B6C5" opacity="0.57"></path>
            <path d="M235.606452,208.910809 C238.201489,206.331828 238.201489,202.149956 235.606452,199.570975 C233.012159,196.991253 228.805459,196.991253 226.211166,199.570975 C223.616873,202.149956 223.616873,206.331828 226.211166,208.910809 C228.805459,211.489791 233.012159,211.489791 235.606452,208.910809 Z" id="Path" fill="#85B6C5"></path>
            <path d="M592.600496,204.239782 C592.600496,204.239782 595.958561,282.258964 596.7067,278.321299 C597.454839,274.384375 595.337717,216.310303 599.257816,213.910407 C603.177171,211.511251 605.900993,204.248662 605.900993,204.248662 L592.600496,204.239782 Z" id="Path" fill="#85B6C5" opacity="0.57"></path>
            <path d="M601.178412,210.50556 C604.689826,209.448806 606.674442,205.76127 605.61067,202.27058 C604.546898,198.77989 600.838213,196.806988 597.326799,197.863741 C593.81464,198.921234 591.830025,202.608771 592.893797,206.099461 C593.957568,209.590151 597.666253,211.563053 601.178412,210.50556 Z" id="Path" fill="#85B6C5"></path>
            <polygon id="Path" fill="#5996A3" points="245.180397 339.412447 263.327047 339.412447 259.695037 355.909788 243.259057 355.909788"></polygon>
            <polygon id="Path" fill="#5996A3" points="588.498759 355.909788 572.058313 355.909788 568.426303 339.412447 586.577419 339.412447"></polygon>
        </g>
    </g>
</svg>