<svg width="48px" height="48px" viewBox="0 0 48 48" version="1.1" xmlns="http://www.w3.org/2000/svg" xmlns:xlink="http://www.w3.org/1999/xlink">
    <g id="Page-1" stroke="none" stroke-width="1" fill="none" fill-rule="evenodd">
        <g id="facebook-circle" transform="translate(1.000000, 1.000000)" stroke="#F2F2F2">
            <path d="M24.13563,33.9502 L20.53823,33.9502 C19.93733,33.9502 19.44853,33.4606 19.44853,32.8588 L19.44853,24.7316 L17.34983,24.7316 C16.74893,24.7316 16.26013,24.2419 16.26013,23.6402 L16.26013,20.1577 C16.26013,19.5559 16.74893,19.0663 17.34983,19.0663 L19.44853,19.0663 L19.44853,17.3224 C19.44853,15.5932 19.99063,14.1221 21.01603,13.0683 C22.04613,12.0096 23.48553,11.4502 25.17883,11.4502 L27.92233,11.4547 C28.52223,11.4557 29.01013,11.9453 29.01013,12.5461 L29.01013,15.7795 C29.01013,16.3813 28.52153,16.8709 27.92083,16.8709 L26.07363,16.8716 C25.51033,16.8716 25.36683,16.9847 25.33613,17.0194 C25.28563,17.0769 25.22543,17.2395 25.22543,17.6884 L25.22543,19.0661 L27.78203,19.0661 C27.97443,19.0661 28.16093,19.1137 28.32113,19.2033 C28.66683,19.3967 28.88173,19.7626 28.88173,20.1579 L28.88043,23.6404 C28.88043,24.2419 28.39163,24.7315 27.79073,24.7315 L25.22543,24.7315 L25.22543,32.8588 C25.22543,33.4606 24.73653,33.9502 24.13563,33.9502 Z M20.76553,32.6312 L23.90833,32.6312 L23.90833,24.1411 C23.90833,23.7393 24.23483,23.4124 24.63593,23.4124 L27.56343,23.4124 L27.56463,20.3853 L24.63573,20.3853 C24.23463,20.3853 23.90833,20.0585 23.90833,19.6566 L23.90833,17.6884 C23.90833,17.173 23.96063,16.587 24.34903,16.1465 C24.81823,15.614 25.55773,15.5526 26.07333,15.5526 L27.69323,15.5519 L27.69323,12.7734 L25.17783,12.7692 C22.45653,12.7692 20.76553,14.514 20.76553,17.3224 L20.76553,19.6566 C20.76553,20.0583 20.43923,20.3853 20.03813,20.3853 L17.57703,20.3853 L17.57703,23.4124 L20.03813,23.4124 C20.43923,23.4124 20.76553,23.7393 20.76553,24.1411 L20.76553,32.6312 Z" id="Shape" fill="#F2F2F2" fill-rule="nonzero"></path>
            <rect id="Rectangle" stroke-width="2" x="0" y="0" width="46" height="46" rx="23"></rect>
        </g>
    </g>
</svg>