
<svg width="240px" height="60px" viewBox="0 0 240 60" version="1.1" xmlns="http://www.w3.org/2000/svg" xmlns:xlink="http://www.w3.org/1999/xlink">
    <defs>
        <linearGradient x1="-1.25353592e-05%" y1="50.0000277%" x2="100.000247%" y2="50.0000277%" id="linearGradient-ymxezlfv9n-1">
            <stop stop-color="#4DB4FE" offset="0%"></stop>
            <stop stop-color="#BE34FF" offset="100%"></stop>
        </linearGradient>
    </defs>
    <g id="Page-1" stroke="none" stroke-width="1" fill="none" fill-rule="evenodd">
        <g id="topseed-purple-horizontal" fill-rule="nonzero">
            <path d="M18.0060529,38.6226613 C18.1496687,38.8626666 18.4328612,39.0826526 18.9487562,38.7187084 L24.4698873,31.5196751 C24.741411,30.8916576 24.9548151,30.8356488 24.8578745,29.7678841 C24.5666036,28.5611097 24.5313728,27.3037251 24.7544262,26.0816551 C24.9777039,24.8595852 25.4538802,23.7013967 26.1506413,22.6862667 C26.8474025,21.6711366 27.7483675,20.8229081 28.7920506,20.1993893 C29.8357338,19.5758704 30.9976757,19.1916821 32.1984386,19.0731415 C32.7847952,18.7933228 33.3040562,18.3834919 33.7194201,17.8733401 L38.2549875,11.9421285 C38.8523396,10.9342413 38.3595578,10.3423258 38.0299146,10.1183584 C36.4772928,9.66396789 34.8717127,9.43116053 33.2576054,9.4264369 L23.4843237,9.4264369 C17.9517482,-1.22819984 8.1241617,0.0476294643 8.1241617,0.0476294643 C7.12311447,5.92287738 11.7439539,9.60642961 15.1079303,11.4701931 C11.7672914,10.9262561 6.73512733,10.6382948 2.45178516,12.6340274 C2.45178516,12.6340274 -3.64336049,14.9737301 3.38685886,18.0814047 C3.38685886,18.0814047 10.7817278,21.45295 18.0098677,17.8893105 L18.0060529,38.6226613 Z M43.7875631,13.0459952 C43.5122246,12.8898906 43.1987381,12.8196435 42.8852517,12.843779 C42.5719897,12.8679145 42.2719672,12.9854203 42.0222103,13.1819682 L37.4711593,19.1291502 C37.3780334,19.529084 37.2034504,20.1370824 37.8591464,20.6011225 C38.4340585,21.0154522 38.9553391,21.5031105 39.411095,22.0528507 L39.4499161,22.0969379 C39.5623404,22.2368473 39.6709499,22.3767566 39.7757446,22.5247636 L39.7952673,22.5528804 C39.8960228,22.6927898 39.9931879,22.836748 40.0822746,22.9807061 C40.0912506,22.9975762 40.101573,23.0137715 40.1134662,23.0286172 C41.1786917,24.7491423 41.6214324,26.8018959 41.3633727,28.8256329 C41.1055374,30.8493699 40.1637317,32.7145279 38.7035626,34.0931524 C37.2433935,35.4717768 35.3584357,36.2754683 33.3803521,36.3629679 C31.402044,36.4504674 29.4571715,35.8159268 27.8879441,34.5713634 C26.8792673,34.2913198 26.5105785,34.7272431 26.1266306,35.0311298 L25.5562064,35.8231247 L18.7703584,44.65001 C18.3612777,45.4809186 18.0985056,46.3799824 17.9943841,47.3055884 L17.9943841,60 L27.3487115,55.6286201 L27.3487115,44.6218932 C29.2601485,45.2287669 31.2460862,45.5506483 33.246161,45.5778654 C36.9265411,45.5798898 40.5144685,44.3877362 43.5010046,42.1705554 C46.4877651,39.9533746 48.7218889,36.823634 49.8867479,33.2246797 C51.0516069,29.6257254 51.0881841,25.7399794 49.9915426,22.1183067 C48.8946767,18.496634 46.7202432,15.3226262 43.7758943,13.0459952 L43.7875631,13.0459952 Z" id="Shape" fill="url(#linearGradient-ymxezlfv9n-1)"></path>
            <polygon id="Path" fill="#7E49FF" points="76.9502537 44.2219594 76.6610025 44.2219594 74.6916704 44.2219594 74.3959115 44.2219594 74.3959115 43.9320186 74.3959115 17.4185223 66.5690731 17.4185223 66.2795975 17.4185223 66.2795975 17.1283566 66.2795975 15.488583 66.2795975 15.1984623 66.5690731 15.1984623 84.7016938 15.1984623 84.9974527 15.1984623 84.9974527 15.488583 84.9974527 17.1283566 84.9974527 17.4185223 84.7016938 17.4185223 76.9502537 17.4185223 76.9502537 43.9320186"></polygon>
            <polygon id="Path" fill="#7E49FF" points="76.6601049 17.1218335 76.6601049 43.9317937 74.684714 43.9317937 74.684714 17.1218335 66.5681755 17.1218335 66.5681755 15.4884256 84.7010206 15.4884256 84.7010206 17.1218335"></polygon>
            <path d="M97.7635537,44.5328191 L97.6944386,44.5328191 C96.3682361,44.5289952 95.0559465,44.2635723 93.8320703,43.7513961 C92.6084186,43.2392199 91.4971911,42.4904125 90.5621174,41.5479363 C88.6737936,39.6443144 87.6170952,37.0665634 87.6244617,34.3819684 C87.63213,31.6973735 88.7031899,29.1259206 90.6022849,27.2328707 C92.5013799,25.3398207 95.0727765,24.2806035 97.7509873,24.2882101 L97.889442,24.2882101 C99.2335964,24.3078205 100.560472,24.5932626 101.794222,25.1277073 C103.027972,25.662377 104.144585,26.4357023 105.079658,27.403596 C106.014732,28.3714898 106.750314,29.5148326 107.243994,30.7679435 C107.737449,32.0212794 107.979576,33.3596405 107.956239,34.7067741 C107.853912,37.3477317 106.735055,39.8460808 104.834838,41.6781735 C102.934397,43.5100412 100.400251,44.533044 97.7635537,44.5328191 Z M97.7635537,26.6217232 C95.7426097,26.6484904 93.8109767,27.4611793 92.3761648,28.8883896 C90.9413529,30.315375 90.1157863,32.2453143 90.0733747,34.2708507 C90.0307388,36.2966121 90.7750727,38.2593918 92.1486235,39.74576 C93.5223987,41.2319032 95.4183521,42.1251186 97.4366033,42.2371361 L97.7447041,42.2371361 C98.7558493,42.2330873 99.7555502,42.0256975 100.685014,41.6268884 C101.614702,41.2283042 102.45463,40.6463983 103.155655,39.9162604 C104.235018,38.8383736 104.97419,37.4662723 105.281169,35.9704569 C105.587924,34.4744166 105.44902,32.9212429 104.881738,31.5039297 C104.314231,30.0866165 103.343253,28.8681455 102.089981,27.9998978 C100.836484,27.131875 99.3561186,26.6525393 97.8328932,26.6217232 L97.7635537,26.6217232 Z" id="Shape" fill="#7E49FF"></path>
            <path d="M97.6625738,44.2351706 C95.7161305,44.2077885 93.8219723,43.6009148 92.2208802,42.4913122 C90.6197881,41.3817096 89.3842431,39.8197635 88.6713252,38.004091 C87.9586316,36.1886435 87.8008786,34.2015709 88.2180377,32.2956996 C88.6354212,30.3900533 89.6088673,28.6517584 91.0147316,27.3023755 C92.420596,25.9529925 94.1953735,25.053254 96.1128692,24.7178764 C98.030365,24.3824988 100.003961,24.6265529 101.782777,25.4189977 C103.56137,26.2114424 105.064624,27.5162883 106.101126,29.1677585 C107.137853,30.8192286 107.660704,32.7426448 107.603482,34.6928281 C107.50699,37.2658555 106.415734,39.7005481 104.560397,41.4815806 C102.70506,43.2623882 100.231278,44.2498513 97.6625738,44.2351706 L97.6625738,44.2351706 Z M97.7379721,26.3302079 C95.6102138,26.3648479 93.5814158,27.2380442 92.0907284,28.7606268 C90.6002653,30.2829844 89.7675179,32.3325889 89.7726032,34.4658691 C89.7637031,36.5350429 90.5515706,38.5279638 91.9722453,40.0294026 C93.3926956,41.5308413 95.3364462,42.4251815 97.3982309,42.5257272 C98.4591929,42.5482207 99.5140961,42.3608501 100.502801,41.9746374 C101.491507,41.5881996 102.394491,41.0105675 103.160367,40.2743564 C103.926468,39.5383702 104.540201,38.658201 104.966785,37.684234 C105.393369,36.7102669 105.624501,35.6616216 105.646716,34.5981306 C105.668932,33.5348646 105.482231,32.4774468 105.096713,31.4863848 C104.711418,30.4953227 104.13516,29.5901857 103.400699,28.8222589 C102.666239,28.0545569 101.788163,27.4393607 100.816512,27.0117599 C99.8450857,26.5841591 98.7989341,26.3524765 97.7379721,26.3302079 L97.7379721,26.3302079 Z" id="Shape" fill="#7E49FF"></path>
            <path d="M153.19343,44.2615479 L141.597798,44.2615479 L141.597798,41.9721631 L152.016902,41.9721631 C157.20121,41.9721631 158.384245,39.9351549 158.554116,36.8825669 C158.723986,34.1581585 157.220284,32.4679996 153.520605,31.2443551 L148.172711,29.4597236 C143.516865,27.8766336 141.528683,25.5431616 141.717403,21.8915726 C141.830501,18.8326864 143.353277,15.1874855 149.927965,15.1874855 L159.478867,15.1874855 L159.478867,17.4012023 L149.210784,17.4012023 C146.423515,17.4012023 144.378784,19.2301459 144.227763,21.8474854 C144.051609,25.0008442 147.166053,26.4134337 148.512452,26.8927695 L155.647241,29.282925 C157.275486,29.764735 158.70379,30.76277 159.718077,32.1274485 C160.732139,33.4919021 161.277431,35.1494455 161.272085,36.851076 C161.18408,41.442442 158.088486,44.2867406 153.199713,44.2867406 L153.19343,44.2615479 Z" id="Path" fill="#7E49FF"></path>
            <path d="M237.527115,15.1984623 L237.527115,33.7780189 C237.527115,38.5207659 234.345127,42.2101439 230.110704,42.3489286 L229.821228,42.3489286 C225.360161,42.3489286 222.182661,39.1514826 222.106365,34.5601167 C222.074949,33.5258672 222.254469,32.4961164 222.629216,31.5324964 C223.006208,30.5691013 223.573939,29.6918562 224.296506,28.9533957 C225.030294,28.2034636 225.907697,27.6071619 226.874859,27.1989055 C227.839778,26.7908741 228.878749,26.5789856 229.926696,26.5758366 C231.789214,26.7018 233.570948,27.3777286 235.049742,28.5183721 L236.180716,29.5589198 L236.180716,26.6957267 L235.653377,26.25418 C233.896327,25.0687744 231.83185,24.4243367 229.713516,24.4000437 C228.37385,24.3932957 227.047647,24.6530952 225.808961,25.1645966 C224.572518,25.676098 223.448275,26.4289542 222.501309,27.3793031 C221.556586,28.3298769 220.809335,29.4590488 220.302191,30.7015878 C219.797292,31.9439018 219.541476,33.2748401 219.552696,34.6168002 C219.545964,35.9157978 219.797292,37.2028738 220.293215,38.4029001 C220.789139,39.6029265 221.518438,40.6916102 222.440721,41.6048448 C224.386266,43.5644754 227.029695,44.6693544 229.789812,44.6761024 L229.890792,44.6761024 C235.552397,44.6446116 240,40.0028603 240,34.1248682 L240,15.2047605 L237.527115,15.1984623 Z" id="Path" fill="#7E49FF"></path>
            <path d="M214.021242,34.3291088 L211.555089,34.3291088 L211.555089,34.6129763 C211.541625,36.6189435 210.731542,38.5369612 209.306604,39.9455019 C207.881666,41.3540427 205.956316,42.137715 203.95467,42.1242189 C201.876729,42.0803566 199.895279,41.2305536 198.429949,39.7534077 C196.962375,38.2762619 196.124241,36.286715 196.090357,34.2029205 C196.081381,32.1949289 196.854887,30.2629652 198.245941,28.818435 C199.637219,27.3741296 201.537885,26.5317494 203.539531,26.4707921 L203.678659,26.4707921 C204.724361,26.4388514 205.763332,26.636344 206.726007,27.0490991 C207.688682,27.4618541 208.548133,28.0804244 209.246016,28.8611725 L197.889145,36.4290986 C198.207793,37.1120002 198.652105,37.7280962 199.19964,38.2454459 L212.412296,29.3719991 L212.636696,29.2206181 L212.499812,28.9810627 C211.582017,27.5214618 210.311915,26.3153622 208.810681,25.4727571 C207.309446,24.6301519 205.619716,24.1775834 203.89857,24.1562146 L203.703343,24.1562146 C201.06889,24.2367412 198.566833,25.3292488 196.714413,27.207453 C194.861769,29.0856573 193.800358,31.60605 193.749868,34.2470077 C193.720472,35.5752467 193.958335,36.895838 194.449097,38.1300544 C194.93986,39.3642708 195.673422,40.4866947 196.606252,41.4305205 C197.55479,42.3981893 198.68352,43.1679156 199.928939,43.6949375 C201.176602,44.2221843 202.514024,44.4963797 203.867154,44.5017789 C206.636247,44.5029028 209.29314,43.4027474 211.254394,41.4431168 C212.154237,40.5469772 212.865584,39.4792124 213.345799,38.3028042 C213.826015,37.126396 214.066122,35.8651875 214.052658,34.5938569 L214.021242,34.3291088 Z" id="Path" fill="#7E49FF"></path>
            <path d="M187.847482,34.3275343 L185.381104,34.3275343 L185.381104,34.6111769 C185.366294,36.6173689 184.557108,38.5353867 183.131946,39.9439274 C181.706783,41.3522432 179.782106,42.1359155 177.780685,42.1226444 C175.70207,42.0787821 173.721294,41.228979 172.254617,39.7518332 C170.788165,38.2746874 169.949807,36.2851405 169.916147,34.2013459 C169.906947,32.194479 170.67978,30.2631902 172.069936,28.8188848 C173.460317,27.3748044 175.358065,26.5317494 177.359262,26.4692175 L177.504,26.4692175 C178.549703,26.4372768 179.589796,26.6345445 180.551573,27.0475245 C181.51335,27.4602796 182.373474,28.0786249 183.072031,28.859598 L171.709326,36.4275241 C172.032237,37.1090761 172.478119,37.7247222 173.024084,38.2438714 L186.23674,29.3704246 L186.463384,29.2190436 L186.324929,28.9792632 C185.399954,27.514039 184.122222,26.3054651 182.609543,25.4646594 C181.09664,24.6238537 179.397261,24.1775834 177.667588,24.1672364 L177.478643,24.1672364 C174.843741,24.2461885 172.339889,25.3377963 170.485898,27.2162255 C168.631683,29.0948796 167.569375,31.6161721 167.518885,34.2580295 C167.489489,35.5862685 167.727352,36.9068598 168.218115,38.1410762 C168.708877,39.3750677 169.442664,40.4977165 170.375269,41.4413173 C171.325602,42.4152843 172.459718,43.1895094 173.711869,43.7190055 C174.963795,44.2485017 176.308623,44.522697 177.667588,44.5253965 C180.434661,44.526071 183.089085,43.4259157 185.047646,41.4667349 C185.948162,40.5708202 186.660407,39.5032804 187.142418,38.3268722 C187.624428,37.150464 187.866331,35.8892555 187.853765,34.617475 L187.847482,34.3275343 Z" id="Path" fill="#7E49FF"></path>
            <path d="M125.132468,24.3237909 C119.46974,24.3237909 115.008898,29.0098543 115.008898,34.9949154 L115.008898,53.8077742 L117.525765,53.8077742 L117.525765,35.1840854 C117.525765,30.9647613 120.268828,26.5816849 124.868125,26.5438958 L125.088261,26.5438958 C130.297925,26.5438958 132.73917,30.6496279 132.802002,34.4714924 C132.82691,35.4827986 132.64941,36.4887063 132.279824,37.4300578 C131.910237,38.3714093 131.356194,39.2288602 130.650233,39.952025 C129.931256,40.6765395 129.076293,41.2512475 128.134712,41.6430837 C127.19313,42.0349198 126.183332,42.2360114 125.163884,42.2348867 C123.305181,42.1849513 121.515593,41.5198195 120.073824,40.3429615 L119.331286,39.7122447 L119.331286,42.6449426 L119.482307,42.7585346 C121.230381,43.9081756 123.268379,44.5359682 125.358887,44.5685837 C128.037098,44.5384424 130.593684,43.4430107 132.4663,41.5234185 C134.338691,39.6038262 135.373847,37.0173027 135.343778,34.3327078 C135.313708,31.6481128 134.221106,29.0854324 132.306078,27.2083528 C130.391051,25.3312732 127.810678,24.2938746 125.132468,24.3237909 L125.132468,24.3237909 Z" id="Path" fill="#7E49FF"></path>
        </g>
    </g>
</svg>