
<svg width="240px" height="60px" viewBox="0 0 240 60" version="1.1" xmlns="http://www.w3.org/2000/svg" xmlns:xlink="http://www.w3.org/1999/xlink">
    <defs>
        <linearGradient x1="13.87859%" y1="58.333257%" x2="85.533351%" y2="58.0382814%" id="linearGradient-d3ww-cvxf5-1">
            <stop stop-color="#FF9191" offset="0%"></stop>
            <stop stop-color="#FF5793" offset="100%"></stop>
        </linearGradient>
        <linearGradient x1="29.0321003%" y1="58.3331%" x2="70.6269143%" y2="58.1619222%" id="linearGradient-d3ww-cvxf5-2">
            <stop stop-color="#FF9191" offset="0%"></stop>
            <stop stop-color="#FF5793" offset="100%"></stop>
        </linearGradient>
        <linearGradient x1="29.5113529%" y1="58.333244%" x2="70.1551567%" y2="58.1657183%" id="linearGradient-d3ww-cvxf5-3">
            <stop stop-color="#FF9191" offset="0%"></stop>
            <stop stop-color="#FF5793" offset="100%"></stop>
        </linearGradient>
        <linearGradient x1="-0.413535743%" y1="58.2606157%" x2="99.5886843%" y2="57.8487091%" id="linearGradient-d3ww-cvxf5-4">
            <stop stop-color="#FF9191" offset="0%"></stop>
            <stop stop-color="#FF5793" offset="100%"></stop>
        </linearGradient>
        <linearGradient x1="-0.175347639%" y1="58.3330725%" x2="99.3616634%" y2="57.9233405%" id="linearGradient-d3ww-cvxf5-5">
            <stop stop-color="#FF9191" offset="0%"></stop>
            <stop stop-color="#FF5793" offset="100%"></stop>
        </linearGradient>
        <linearGradient x1="26.9548392%" y1="58.333246%" x2="72.6705948%" y2="58.1450563%" id="linearGradient-d3ww-cvxf5-6">
            <stop stop-color="#FF9191" offset="0%"></stop>
            <stop stop-color="#FF5793" offset="100%"></stop>
        </linearGradient>
        <linearGradient x1="25.7405165%" y1="58.3331323%" x2="73.8643633%" y2="58.13495%" id="linearGradient-d3ww-cvxf5-7">
            <stop stop-color="#FF9191" offset="0%"></stop>
            <stop stop-color="#FF5793" offset="100%"></stop>
        </linearGradient>
        <linearGradient x1="-0.220956233%" y1="58.3332069%" x2="99.3999452%" y2="57.9232255%" id="linearGradient-d3ww-cvxf5-8">
            <stop stop-color="#FF9191" offset="0%"></stop>
            <stop stop-color="#FF5793" offset="100%"></stop>
        </linearGradient>
        <linearGradient x1="-0.312628622%" y1="58.3332494%" x2="99.4918333%" y2="57.9225257%" id="linearGradient-d3ww-cvxf5-9">
            <stop stop-color="#FF9191" offset="0%"></stop>
            <stop stop-color="#FF5793" offset="100%"></stop>
        </linearGradient>
        <linearGradient x1="26.0201541%" y1="58.3332845%" x2="73.5894973%" y2="58.137561%" id="linearGradient-d3ww-cvxf5-10">
            <stop stop-color="#FF9191" offset="0%"></stop>
            <stop stop-color="#FF5793" offset="100%"></stop>
        </linearGradient>
    </defs>
    <g id="Page-1" stroke="none" stroke-width="1" fill="none" fill-rule="evenodd">
        <g id="topseed-red-horizontal" fill-rule="nonzero">
            <path d="M18.0060307,38.6226677 C18.1496541,38.8626444 18.4328465,39.0827078 18.9488567,38.7186787 L24.4698926,31.5195807 C24.7414289,30.8916993 24.9548875,30.8357183 24.8578885,29.7678118 C24.5666889,28.5611211 24.5314165,27.3037326 24.754504,26.0817005 C24.9775915,24.8595668 25.4537683,23.7014404 26.1504987,22.6863653 C26.8473305,21.6711887 27.7482959,20.8229391 28.7919724,20.1994264 C29.8357504,19.5759137 30.9976096,19.191768 32.1984914,19.0732021 C32.7847423,18.7931954 33.303996,18.3835484 33.7193584,17.8733185 L38.2548968,11.9420738 C38.8523983,10.9342123 38.3597003,10.3422968 38.0298835,10.1183727 C36.4772917,9.6639613 34.8715886,9.43115747 33.2576757,9.42643312 L23.4843951,9.42643312 C17.9517032,-1.22820854 8.12413566,0.0476303656 8.12413566,0.0476303656 C7.12314067,5.92288497 11.7439713,9.60641565 15.1078188,11.4701467 C11.7672835,10.9262875 6.7351549,10.6382545 2.45182396,12.6340642 C2.45182396,12.6340642 -3.64339114,14.9736847 3.38686572,18.0812916 C3.38686572,18.0812916 10.781786,21.4529542 18.0099836,17.8893712 L18.0060307,38.6226677 Z M43.7875887,13.0459463 C43.5122008,12.8898903 43.1987026,12.8195839 42.8853057,12.8437644 C42.5719088,12.867945 42.2719924,12.9853933 42.0222479,13.1819873 L37.4712018,19.1291831 C37.3780544,19.5291781 37.2034157,20.1370446 37.8591977,20.601047 C38.4339952,21.0153675 38.9553774,21.503144 39.41108,22.0527943 L39.4498999,22.0967867 C39.5624065,22.23679 39.6710616,22.3767934 39.7757637,22.5247214 L39.7952243,22.5527627 C39.8960749,22.6927661 39.9930739,22.8367318 40.0822683,22.9806975 C40.0912891,22.9975629 40.1016276,23.0136155 40.113385,23.0286522 C41.1786507,24.7492303 41.6212782,26.8018338 41.3634252,28.8255831 C41.1056734,30.8493325 40.1637596,32.7145875 38.7036057,34.0931836 C37.2434518,35.4717797 35.3585093,36.2754273 33.380318,36.362904 C31.4020254,36.4503807 29.4572821,35.8158953 27.8879663,34.5712066 C26.879258,34.2913015 26.5106214,34.7272626 26.1265784,35.0311451 L25.5562406,35.8231088 L18.7703664,44.6499235 C18.3612882,45.4807997 18.09857,46.3800519 17.9943746,47.3056183 L17.9943746,60 L27.3486439,55.6285022 L27.3486439,44.6219838 C29.2602434,45.2288343 31.2461378,45.5506997 33.2460196,45.5778267 C36.9266088,45.579757 40.5143547,44.3876966 43.5010515,42.1706045 C46.487647,39.9534107 48.7217656,36.8235536 49.8866656,33.2246142 C51.0515655,29.6255732 51.0882569,25.7400232 49.991469,22.1183256 C48.8947826,18.4966281 46.7201608,15.3225755 43.7759327,13.0459463 L43.7875887,13.0459463 Z" id="Shape" fill="url(#linearGradient-d3ww-cvxf5-1)"></path>
            <polygon id="Path" fill="url(#linearGradient-d3ww-cvxf5-2)" points="76.9502926 44.2230047 76.6608161 44.2230047 74.6915442 44.2230047 74.3957835 44.2230047 74.3957835 43.9328382 74.3957835 17.4193745 66.5689694 17.4193745 66.2794928 17.4193745 66.2794928 17.1293095 66.2794928 15.4895025 66.2794928 15.1994375 66.5689694 15.1994375 84.7016969 15.1994375 84.9973562 15.1994375 84.9973562 15.4895025 84.9973562 17.1293095 84.9973562 17.4193745 84.7016969 17.4193745 76.9502926 17.4193745 76.9502926 43.9328382"></polygon>
            <polygon id="Path" fill="url(#linearGradient-d3ww-cvxf5-3)" points="76.6601066 17.1228071 76.6601066 43.9327366 74.6845506 43.9327366 74.6845506 17.1228071 66.5682599 17.1228071 66.5682599 15.4894009 84.7009874 15.4894009 84.7009874 17.1228071"></polygon>
            <path d="M97.7637191,44.5313577 L97.694492,44.5313577 C96.3684339,44.5277 95.0559577,44.2621203 93.8322705,43.7500617 C92.6084819,43.2379014 91.4974027,42.4891172 90.5622798,41.5465838 C88.6737898,39.6429243 87.6171395,37.0653591 87.6246003,34.3807086 C87.6321404,31.6961597 88.7032848,29.1244872 90.602316,27.2314957 C92.5014485,25.3385042 95.0729857,24.2792336 97.7511508,24.2867122 L97.8896049,24.2867122 C99.2336033,24.3064621 100.560472,24.5918535 101.794194,25.1264672 C103.027713,25.6610808 104.144671,26.434452 105.080199,27.4022835 C106.014714,28.3701151 106.750568,29.513408 107.244178,30.766631 C107.737789,32.0198539 107.980033,33.3583184 107.95672,34.7055204 C107.854349,37.3463818 106.735364,39.8448014 104.834914,41.676732 C102.934464,43.5086626 100.400226,44.5317639 97.7637191,44.5313577 L97.7637191,44.5313577 Z M97.7637191,26.6202765 C95.7426537,26.6472002 93.8109854,27.4598901 92.3762722,28.8869489 C90.9414577,30.3140077 90.1158007,32.2439812 90.073332,34.2695594 C90.0309646,36.2951375 90.7750289,38.2581307 92.1488263,39.7443201 C93.5225224,41.230611 95.4184115,42.123869 97.4365376,42.2357294 L97.7448666,42.2357294 C98.7558048,42.231767 99.755695,42.0242004 100.685243,41.6255261 C101.614791,41.2268519 102.455044,40.6450963 103.155423,39.9149047 C104.234879,38.8371431 104.973774,37.4648462 105.280887,35.9690049 C105.587999,34.4731637 105.44914,32.919919 104.881539,31.5026137 C104.313937,30.0853085 103.342934,28.8667307 102.090157,27.9985677 C100.836671,27.1304048 99.3561443,26.6510609 97.8329462,26.6202765 L97.7637191,26.6202765 Z" id="Shape" fill="url(#linearGradient-d3ww-cvxf5-4)"></path>
            <path d="M97.6624631,44.2348556 C95.7161994,44.2075617 93.821932,43.6006096 92.22079,42.4910475 C90.6197494,41.3814855 89.3841021,39.8196049 88.6713572,38.0039302 C87.958511,36.188357 87.800799,34.2012849 88.2180872,32.2954919 C88.6353754,30.3898005 89.6089127,28.6515442 91.014739,27.302107 C92.4206667,25.9526698 94.1952311,25.0530111 96.1127093,24.717633 C98.0302889,24.3822549 100.003919,24.6262956 101.783045,25.4187673 C103.561866,26.2111375 105.064995,27.5161759 106.100867,29.1676668 C107.137753,30.819056 107.660757,32.742324 107.602983,34.6926174 C107.506694,37.2657122 106.416089,39.7003277 104.560236,41.4812556 C102.705396,43.2621835 100.231264,44.2496237 97.6624631,44.2348556 L97.6624631,44.2348556 Z M97.7379743,26.3299067 C95.6100783,26.3647551 93.581411,27.2377948 92.0907486,28.7603566 C90.6000861,30.2828168 89.7673342,32.3323723 89.7725298,34.4655437 C89.7636853,36.5348094 90.551536,38.5277743 91.9720591,40.0292035 C93.3925823,41.5307343 95.3363121,42.4249066 97.3982245,42.5255912 C98.4591318,42.5479429 99.5139577,42.3605945 100.502699,41.9743153 C101.491135,41.5880361 102.394229,41.0103445 103.160491,40.2741586 C103.926752,39.5380742 104.539964,38.6579226 104.966679,37.6839951 C105.393393,36.7100676 105.624488,35.6614649 105.646787,34.5980288 C105.669085,33.5345926 105.482588,32.4771508 105.096416,31.4861547 C104.711258,30.4951586 104.134535,29.589912 103.400708,28.8221288 C102.665867,28.0543456 101.788112,27.4390623 100.816501,27.011534 C99.8449908,26.583904 98.7988817,26.3522584 97.7379743,26.3299067 L97.7379743,26.3299067 Z" id="Shape" fill="url(#linearGradient-d3ww-cvxf5-5)"></path>
            <path d="M153.193516,44.2613075 L141.597223,44.2613075 L141.597223,41.9718769 L152.016758,41.9718769 C157.201186,41.9718769 158.384026,39.9348181 158.554306,36.8823794 C158.723573,34.1579021 157.220444,32.4677021 153.520901,31.244146 L148.172274,29.4593574 C143.516931,27.8763442 141.5283,25.5429213 141.716824,21.8913536 C141.830345,18.8325142 143.352732,15.1872457 149.927783,15.1872457 L159.478685,15.1872457 L159.478685,17.4008835 L149.211186,17.4008835 C146.423859,17.4008835 144.378468,19.2298677 144.227446,21.8471581 C144.051084,25.0004845 147.165795,26.4132178 148.511821,26.8925616 L155.647378,29.2827784 C157.275177,29.764459 158.703302,30.762567 159.717889,32.1271424 C160.732476,33.4917179 161.277778,35.149203 161.271747,36.8508837 C161.183516,41.44214 158.088063,44.2865041 153.199598,44.2865041 L153.193516,44.2613075 Z" id="Path" fill="url(#linearGradient-d3ww-cvxf5-6)"></path>
            <path d="M237.527894,15.1994375 L237.527894,33.7790397 C237.527894,38.5216784 234.34426,42.2111424 230.10955,42.349825 L229.820682,42.349825 C225.359945,42.349825 222.182393,39.152303 222.106375,34.5610467 C222.075967,33.5267695 222.253343,32.4970642 222.630392,31.5334998 C223.006428,30.570037 223.573015,29.6927301 224.296707,28.9544106 C225.031547,28.2044072 225.907275,27.6080214 226.874224,27.1998984 C227.841173,26.7917755 228.878059,26.5799417 229.927107,26.5766905 C231.788028,26.7026732 233.570904,27.378611 235.048694,28.5191607 L236.180855,29.5598387 L236.180855,26.6965773 L235.652784,26.2551299 C233.895247,25.0696734 231.831612,24.4252313 229.713243,24.4009491 C228.374313,24.3942436 227.047545,24.6541337 225.809972,25.1655828 C224.571385,25.6770319 223.447332,26.4297784 222.502682,27.3803382 C221.557018,28.3307963 220.809001,29.4600685 220.303227,30.7024204 C219.796441,31.9448739 219.54102,33.2757185 219.552169,34.6178406 C219.545074,35.9166815 219.796441,37.2038385 220.293092,38.4039252 C220.788729,39.6039103 221.518502,40.6924414 222.43984,41.6057143 C224.386915,43.5654564 227.030314,44.6701417 229.789261,44.6770504 L229.889605,44.6770504 C235.55244,44.6454532 240,40.0037022 240,34.1258985 L240,15.2057367 L237.527894,15.1994375 Z" id="Path" fill="url(#linearGradient-d3ww-cvxf5-7)"></path>
            <path d="M214.022113,34.3277756 L211.555075,34.3277756 L211.555075,34.611643 C211.540885,36.6177142 210.73104,38.535699 209.305956,39.9442668 C207.880871,41.352733 205.956095,42.1363656 203.955301,42.122853 C201.876462,42.0790638 199.89594,41.2292903 198.429299,39.7521432 C196.962658,38.2749962 196.124433,36.2854856 196.089972,34.2016913 C196.080849,32.1936897 196.855219,30.2615826 198.246856,28.817252 C199.638492,27.3728198 201.536915,26.530463 203.539736,26.4696052 L203.678596,26.4696052 C204.72359,26.4376016 205.763516,26.6350083 206.725398,27.0478048 C207.687279,27.4607029 208.547803,28.0791357 209.246155,28.859822 L197.890078,36.4279273 C198.20834,37.1106722 198.652285,37.7268698 199.198601,38.2443133 L212.410531,29.3707631 L212.637571,29.2193806 L212.498712,28.9797087 C211.580414,27.5201383 210.312434,26.3141588 208.810318,25.4714972 C207.308202,24.6288356 205.619589,24.1762123 203.898541,24.1550797 L203.702922,24.1550797 C201.069658,24.2354444 198.567145,25.3279379 196.714333,27.2061976 C194.861521,29.0844573 193.800309,31.6049239 193.74963,34.2457852 C193.720237,35.5740898 193.958427,36.8946729 194.448996,38.1287953 C194.939566,39.3629176 195.673393,40.4853828 196.60588,41.4291354 C197.553572,42.3968653 198.683706,43.1665789 199.929388,43.6937758 C201.176083,44.2209728 202.514,44.4951883 203.867121,44.5005736 C206.636203,44.5014874 209.292779,43.4014757 211.25303,41.4417336 C212.153083,40.545631 212.864612,39.4778261 213.345046,38.3015135 C213.826493,37.1250993 214.06671,35.8639516 214.053534,34.592644 L214.022113,34.3277756 Z" id="Path" fill="url(#linearGradient-d3ww-cvxf5-8)"></path>
            <path d="M187.847592,34.3273692 L185.381568,34.3273692 L185.381568,34.611135 C185.366365,36.6172062 184.557533,38.5352926 183.132449,39.9437588 C181.706351,41.352225 179.781575,42.1358576 177.780781,42.1224466 C175.701942,42.0786574 173.721419,41.2288839 172.254779,39.7517368 C170.788138,38.2744882 169.949913,36.2849776 169.916465,34.2011833 C169.907342,32.1942993 170.679685,30.2631066 172.070308,28.8188776 C173.459917,27.3746486 175.35834,26.5315806 177.359134,26.4691988 L177.504075,26.4691988 C178.550083,26.4371952 179.59001,26.6345003 180.551891,27.0473984 C181.513772,27.4601949 182.373282,28.0786277 183.071634,28.8594156 L171.709476,36.4274193 C172.032806,37.1088435 172.477765,37.7246347 173.024081,38.2438053 L186.237024,29.3702551 L186.463051,29.2188727 L186.325205,28.9792007 C185.399812,27.5140424 184.12271,26.3054213 182.609445,25.4645885 C181.09618,24.6237556 179.397431,24.1776346 177.667261,24.1671699 L177.478736,24.1671699 C174.843445,24.2460107 172.339919,25.337793 170.486093,27.2162559 C168.631254,29.0947187 167.569029,31.6159981 167.519363,34.2579771 C167.48997,35.5861801 167.727146,36.9067632 168.217716,38.1408855 C168.709299,39.3750079 169.442112,40.4974731 170.375613,41.4413272 C171.325332,42.4150515 172.45952,43.1893371 173.712297,43.7187692 C174.96406,44.2483029 176.309072,44.5225184 177.667261,44.5253635 C180.434316,44.5259728 183.088865,43.4258594 185.048102,41.4665238 C185.948156,40.5707259 186.660698,39.5031242 187.142145,38.32671 C187.624606,37.1503974 187.865837,35.8890465 187.853674,34.6174342 L187.847592,34.3273692 Z" id="Path" fill="url(#linearGradient-d3ww-cvxf5-9)"></path>
            <path d="M125.132736,24.3248515 C119.469901,24.3248515 115.009164,29.0106964 115.009164,34.9957886 L115.009164,53.8087635 L117.525867,53.8087635 L117.525867,35.1849659 C117.525867,30.9657649 120.268597,26.5826848 124.868193,26.5447884 L125.088139,26.5447884 C130.297906,26.5447884 132.738591,30.6505034 132.801432,34.4723509 C132.826772,35.4836668 132.649396,36.4896995 132.279442,37.4311153 C131.910501,38.3724295 131.356077,39.2299246 130.649616,39.9529027 C129.930993,40.6775064 129.07655,41.2522516 128.13494,41.6441187 C127.193331,42.0358843 126.182798,42.2370502 125.164157,42.2359326 C123.305263,42.1859459 121.515292,41.520676 120.073991,40.3439571 L119.331042,39.7132308 L119.331042,42.6458843 L119.482064,42.7593704 C121.230478,43.9091656 123.268774,44.5368439 125.358763,44.5694571 C128.036624,44.5392823 130.59387,43.443944 132.46594,41.5244352 C134.339023,39.6048247 135.373882,37.0182172 135.343475,34.3336683 C135.314081,31.6490178 134.221449,29.086286 132.305795,27.2093471 C130.391155,25.3323066 127.810597,24.2947782 125.132736,24.3248515 L125.132736,24.3248515 Z" id="Path" fill="url(#linearGradient-d3ww-cvxf5-10)"></path>
        </g>
    </g>
</svg>