<svg width="48px" height="48px" viewBox="0 0 48 48" version="1.1" xmlns="http://www.w3.org/2000/svg" xmlns:xlink="http://www.w3.org/1999/xlink">
    <g id="Page-1" stroke="none" stroke-width="1" fill="none" fill-rule="evenodd">
        <g id="twitter-circle" transform="translate(1.000000, 1.000000)" stroke="#F2F2F2">
            <path d="M34.00003,14.0003 C33.04243,14.6758 31.98213,15.1924 30.86003,15.5303 C30.25773,14.8378 29.45733,14.347 28.56703,14.1242 C27.67673,13.9015 26.73953,13.9575 25.88213,14.2847 C25.02463,14.612 24.28843,15.1947 23.77303,15.954 C23.25753,16.7133 22.98773,17.6126 23.00003,18.5303 L23.00003,19.5303 C21.24263,19.5759 19.50123,19.1861 17.93103,18.3957 C16.36073,17.6054 15.01033,16.4389 14.00003,15.0003 C14.00003,15.0003 10.00003,24.0003 19.00003,28.0003 C16.94053,29.3983 14.48713,30.0992 12.00003,30.0003 C21.00003,35.0003 32.00003,30.0003 32.00003,18.5003 C31.99913,18.2217 31.97233,17.9439 31.92003,17.6703 C32.94063,16.6638 33.66083,15.393 34.00003,14.0003 L34.00003,14.0003 Z" id="Path" stroke-width="2.6" stroke-linecap="round" stroke-linejoin="round"></path>
            <rect id="Rectangle" stroke-width="2" x="0" y="0" width="46" height="46" rx="23"></rect>
        </g>
    </g>
</svg>