<svg width="72px" height="72px" viewBox="0 0 72 72" version="1.1" xmlns="http://www.w3.org/2000/svg" xmlns:xlink="http://www.w3.org/1999/xlink">
    <g id="Page-1" stroke="none" stroke-width="1" fill="none" fill-rule="evenodd">
        <g id="Group">
            <path d="M68.7215824,44.8162065 L70.7815665,42.7567733 C72.0780222,41.4596565 72.0780222,39.349652 70.7815665,38.0526454 C70.1531155,37.4247452 69.3180821,37.0785683 68.4292822,37.0785683 C67.7623793,37.0785683 67.125114,37.273582 66.5834827,37.6367262 L66.1494945,36.1798524 L68.3792617,33.9495343 C69.6762683,32.6525277 69.6762683,30.5424129 68.3792617,29.2459572 C67.1854912,28.0516358 65.3034433,27.9599683 63.9998261,28.9646747 L61.357445,20.0937532 C62.4127228,19.0774782 63.4235991,18.0886374 64.3761916,17.1360449 C67.1212578,14.3903175 69.3533388,11.4848332 70.661253,8.95343372 C72.8712985,4.67507472 71.9462502,2.38812549 70.7810156,1.22294595 C69.6164421,0.0577741295 67.3294928,-0.866784896 63.0505389,1.34325951 C60.5196572,2.65071093 57.613622,4.8827368 54.8685557,7.62839801 C53.9159632,8.5809685 52.9265715,9.5912278 51.9108474,10.6464945 L43.039375,8.00415753 C44.0440814,6.70109116 43.9523037,4.81901028 42.7586434,3.62472192 C41.4616368,2.32824415 39.351522,2.32769326 38.0550663,3.62472192 L35.824638,5.85508411 L34.3672133,5.42109591 C34.7303575,4.87889162 34.9253713,4.24163741 34.9253713,3.57472348 C34.9253713,2.68641938 34.5793045,1.85085713 33.9514044,1.22294595 C32.6549486,-0.0740705815 30.544283,-0.0740705815 29.2478273,1.22294595 L27.1882839,3.2824673 L16.6907054,0.155558645 C16.3166537,0.0445892177 15.9123031,0.146768703 15.6370804,0.422543468 L12.9348731,3.12480365 C12.481053,3.57801778 12.5409894,4.35315882 13.0583818,4.73166175 L39.5448831,24.1188588 C33.5728353,30.8522314 27.8200402,37.5938673 23.7586864,42.4105964 L15.9678325,39.4138853 C15.5761524,39.2633832 15.1327991,39.3573644 14.8360917,39.6539616 L11.6334594,42.8567041 C11.2191929,43.2714113 11.2191929,43.9432722 11.6334594,44.3575386 L27.6465111,60.3705903 C28.0551585,60.7798988 28.738588,60.7798988 29.1478965,60.3705903 L32.349978,57.1683987 C32.6466853,56.8718015 32.7412174,56.4278974 32.5900542,56.0362172 L29.593894,48.2458041 C34.4106231,44.1844502 41.1517082,38.4316551 47.8857418,32.4591666 L49.9896867,35.3344624 C50.3632977,35.8448034 51.1208765,35.9106894 51.5789935,35.4755994 C51.9607577,35.1130061 52.0135326,34.5049378 51.7031633,34.0807554 L49.4787947,31.0417363 C53.0001699,27.8989301 56.4775843,24.7280288 59.63251,21.7401319 L69.6334094,55.313785 L68.2539902,56.6926533 L54.5087168,37.9136017 C54.1626501,37.4406107 53.4983914,37.3379255 53.0254005,37.6839923 C52.5518587,38.0306099 52.4491735,38.6947584 52.7957911,39.1677493 L67.2728617,58.9461087 C67.6514308,59.4636112 68.4265277,59.5235476 68.879797,59.0697275 L71.5820043,56.3675202 C71.8577779,56.0922975 71.9599122,55.6873961 71.8489637,55.313785 L68.7215824,44.8162065 Z M39.5564517,5.12609632 C40.0200776,4.6624484 40.7940728,4.6624484 41.2578089,5.12609632 C41.7269436,5.59524208 41.7269436,6.35829667 41.2578089,6.82744243 L40.760028,7.32515715 L38.1380298,6.5439784 L39.5564517,5.12609632 Z M30.7492127,2.72433137 C31.2177965,2.25518561 31.9814351,2.25518561 32.4505698,2.72433137 C32.9197046,3.19347713 32.9197046,3.95652071 32.4505698,4.42567749 L32.123123,4.75254034 L29.5016757,3.97191247 L30.7492127,2.72433137 Z M15.3112862,3.74997142 L16.6907054,2.37109208 L50.2643585,12.3715397 C47.2764616,15.5270163 44.1056705,19.0044307 40.9622033,22.5256957 L15.3112862,3.74997142 Z M15.8497225,41.6432118 L22.3128303,44.129031 C20.6916822,46.0594467 19.4485522,47.5531197 18.7151023,48.4370718 L13.8852621,43.6071214 L15.8497225,41.6432118 Z M20.2230983,49.9449576 C23.9235115,45.480355 43.483169,22.0159055 56.3699412,9.12922152 C58.9266043,6.57199647 61.7172839,4.4218323 64.0251669,3.22973646 C65.7578143,2.33429288 68.0760539,1.52014909 69.2801811,2.72433137 C70.4844185,3.92851365 69.6697679,6.24677526 68.774798,7.97943375 C67.5826802,10.2872616 65.4320202,13.0774454 62.8748062,15.6346594 C49.9891358,28.5202197 26.5241354,48.0805382 22.0595328,51.7815023 L20.2230983,49.9449576 Z M30.3613888,56.1548781 L28.3974792,58.1187877 L23.5675288,53.2889474 C24.45093,52.5560484 25.9451539,51.3129184 27.8755696,49.6917703 L30.3613888,56.1548781 Z M67.5789341,39.5540308 C68.0480689,39.084896 68.8110463,39.084896 69.2801811,39.5540308 C69.749426,40.0231655 69.749426,40.786143 69.2801811,41.2553879 L68.0326441,42.5029249 L67.2514873,39.8813674 L67.5789341,39.5540308 Z M65.17707,30.7467917 C65.6457641,30.277657 66.4092924,30.2782079 66.8784272,30.7467917 C67.3421632,31.2104176 67.3421632,31.984523 66.8784272,32.4481489 L65.4600052,33.8665708 L64.6788485,31.2444624 L65.17707,30.7467917 Z" id="Shape" fill-opacity="0.4" fill="#000000" fill-rule="nonzero"></path>
            <path d="M68.0294489,44.6410247 L68.2879248,44.3825489 L70.3479088,42.3232259 C70.3479088,42.3231157 70.348019,42.3231157 70.348019,42.3230055 C71.4048392,41.2655242 71.4049494,39.5440047 70.3481292,38.4864132 C70.3481292,38.4864132 70.3481292,38.4864132 70.348019,38.486303 M68.0294489,44.6410247 L67.1346995,37.3390273 C67.5388296,37.1682526 67.9772249,37.0785683 68.4292822,37.0785683 C69.3180821,37.0785683 70.1531155,37.4247452 70.7815665,38.0526454 L70.3479088,38.4861929 C70.3479088,38.4861929 70.348019,38.486303 70.348019,38.486303 M68.0294489,44.6410247 L68.1337868,44.9913884 M68.0294489,44.6410247 L68.1337868,44.9913884 M68.1337868,44.9913884 L71.2611681,55.4884159 L68.1337868,44.9913884 Z M63.743664,2.68486588 C61.3625132,3.91484066 58.5215927,6.10971476 55.9362835,8.69558589 C43.0256029,21.6062665 23.4472153,45.0940736 19.7508786,49.553608 L19.3944552,49.9836299 L19.7894407,50.3786153 L21.6258751,52.2151599 L22.0208606,52.6101454 L22.4509926,52.2536118 C26.910527,48.5567243 50.3987748,28.977896 63.3084638,16.0683171 C65.8942138,13.4825672 68.0897159,10.6420874 69.3197347,8.26088154 L68.774798,7.97943375 L69.3197347,8.26084849 C69.7784026,7.37281983 70.2381723,6.29566091 70.418863,5.25901416 C70.5974603,4.23443181 70.5249637,3.10183169 69.7138388,2.29068472 C68.9027138,1.47959284 67.7702018,1.40698603 66.7455534,1.58551725 C65.7088956,1.76613082 64.6318028,2.2259005 63.743664,2.68486588 Z M67.3118645,30.3129137 L67.3120848,30.3131341 C68.0152361,31.0162853 68.0152361,32.1786553 67.3120848,32.8818065 L65.8936629,34.3002285 L65.1660523,35.0277289 L64.8723197,34.0416425 L64.091163,31.4196442 L63.986715,31.0690602 L64.2454112,30.8105844 L64.743192,30.3133544 L67.3118645,30.3129137 Z M67.3118645,30.3129137 C66.6038654,29.6057961 65.452403,29.6039231 64.7437429,30.3129137 L67.3118645,30.3129137 Z M40.5849564,7.91288669 L40.9352099,8.01724658 L41.1936857,7.75879279 L41.6914665,7.26107806 C42.4000164,6.55244001 42.4000164,5.40109874 41.6914665,4.69246069 C40.9883153,3.98934251 39.8260555,3.98930946 39.1229042,4.69237255 C39.1227941,4.6924056 39.1227941,4.69242763 39.1227941,4.69246069 L37.7044823,6.11025463 L36.9765412,6.83785418 L37.9629581,7.13170793 L40.5849564,7.91288669 Z M32.8837868,4.8596767 L32.8842275,4.85931312 L30.7492127,2.72433137 L30.315555,2.29068472 L30.3153347,2.29093813 L29.068018,3.53826582 L28.3402972,4.26596454 L29.326604,4.55966404 L31.9481615,5.34029191 L32.2980845,5.44448654 L32.5564502,5.18653956 L32.8837868,4.8596767 Z M14.8777387,3.31624764 L14.3716946,3.82214853 L14.9491336,4.24482153 L40.6000507,23.0206119 L41.0491331,23.3492707 L41.4197694,22.9341228 C44.5604822,19.4157224 47.7271968,15.9429354 50.709695,12.7931881 L51.3957687,12.0686625 L50.4394302,11.7837441 L16.8657771,1.78335153 L16.5156338,1.67904672 L16.2571579,1.93736831 L14.8777387,3.31624764 Z M16.0698566,41.070841 L15.6978982,40.9277208 L15.4160648,41.209444 L13.4516044,43.1734637 L13.0178365,43.6070112 L13.4516044,44.040779 L18.2814446,48.8706193 L18.7573002,49.346585 L19.1871016,48.8286417 C19.9197804,47.9454609 21.1621391,46.4527795 22.7824057,44.5233554 L23.335165,43.8651565 L22.5329644,43.5566602 L16.0698566,41.070841 Z M30.7950464,56.5885358 L31.0768798,56.3067024 L30.9337596,55.934744 L28.4479404,49.4716362 L28.1394441,48.6693254 L27.481135,49.2220847 C25.5518212,50.8423514 24.0585888,52.0847101 23.1759589,52.8169481 L22.6580156,53.2466394 L23.1338712,53.7224949 L27.9638216,58.5524453 L28.3974792,58.986103 L28.8311369,58.5524453 L30.7950464,56.5885358 Z M67.4449586,42.6781068 L67.7388013,43.664083 L68.4663017,42.9365826 L69.7138388,41.6889354 C70.4224988,40.9803855 70.4224988,39.8290332 69.7138388,39.1203731 C69.0051787,38.411713 67.8538264,38.411713 67.1452765,39.1203731 L66.8178297,39.4478199 L66.5593538,39.7061856 L66.6638019,40.0565492 L67.4449586,42.6781068 Z" id="Shape" stroke-opacity="0.4" stroke="#000000" stroke-width="1.11322"></path>
            <path d="M63.7189843,61.1342289 L54.6607615,70.1924517 C54.2745902,70.579284 54.2486985,71.2175409 54.6041303,71.6329091 C55.0013193,72.096535 55.7303622,72.1256218 56.1621469,71.6938371 L65.2203697,62.6356143 C65.635187,62.220797 65.635187,61.5490462 65.2203697,61.1342289 C64.8062134,60.7200726 64.1338016,60.7200726 63.7189843,61.1342289 L63.7189843,61.1342289 Z" id="Path" fill-opacity="0.4" fill="#000000" fill-rule="nonzero"></path>
            <path d="M60.6909828,58.1066682 C61.1058002,57.6924017 61.1058002,57.0201001 60.6909828,56.6058336 C60.2768265,56.1911265 59.6044148,56.1911265 59.1901483,56.6058336 L53.52858,62.2669612 C53.1424087,62.6536834 53.1165171,63.2920504 53.4719489,63.7073084 C53.8691379,64.1709343 54.5981808,64.2001313 55.0299654,63.7682365 L60.6909828,58.1066682 Z" id="Path" fill-opacity="0.4" fill="#000000" fill-rule="nonzero"></path>
            <path d="M57.2945487,52.4453202 C57.7092559,52.0305029 57.7092559,51.3580911 57.2945487,50.9439348 C56.8797313,50.5291174 56.2078704,50.5291174 55.7931633,50.9439348 L51.8300875,54.9069004 C51.4439162,55.2931818 51.4181347,55.9319896 51.7741174,56.3473578 C52.1707555,56.8109837 52.8996882,56.8400705 53.3314729,56.4082858 L57.2945487,52.4453202 Z" id="Path" fill-opacity="0.4" fill="#000000" fill-rule="nonzero"></path>
            <path d="M10.8707133,7.35059708 C10.455951,6.9363857 9.78355025,6.9363857 9.36933886,7.35059708 L0.311070874,16.4094259 C-0.103690291,16.8235822 -0.103690291,17.4959939 0.311070874,17.9102604 C0.719788817,18.3189078 1.40318196,18.3189078 1.81244638,17.9102604 L10.8707133,8.85197148 C11.2849687,8.43722024 11.2849687,7.76535935 10.8707133,7.35059708 Z" id="Path" fill-opacity="0.4" fill="#000000" fill-rule="nonzero"></path>
            <path d="M15.399428,11.8798187 C14.9846107,11.4650013 14.3127498,11.4650013 13.8985935,11.8798187 L8.23693706,17.541387 C7.85019287,17.9276684 7.82491821,18.5660354 8.18035003,18.9812935 C8.577528,19.4449194 9.30597593,19.4740062 9.73776058,19.0422215 L15.399428,13.3812041 C15.8141352,12.9663867 15.8141352,12.293975 15.399428,11.8798187 Z" id="Path" fill-opacity="0.4" fill="#000000" fill-rule="nonzero"></path>
            <path d="M15.5966453,20.7412649 C16.0059538,21.1500225 16.6888324,21.1500225 17.0980307,20.7412649 L21.0611065,16.7781891 C21.4752628,16.363482 21.4752628,15.6916211 21.0611065,15.2768037 C20.6462892,14.8626474 19.9744283,14.8626474 19.5597211,15.2768037 L15.5966453,19.2398795 C15.182489,19.6545867 15.182489,20.3264476 15.5966453,20.7412649 Z" id="Path" fill-opacity="0.4" fill="#000000" fill-rule="nonzero"></path>
        </g>
    </g>
</svg>