<svg width="86px" height="72px" viewBox="0 0 86 72" version="1.1" xmlns="http://www.w3.org/2000/svg" xmlns:xlink="http://www.w3.org/1999/xlink">
    <g id="Page-1" stroke="none" stroke-width="1" fill="none" fill-rule="evenodd" fill-opacity="0.4">
        <g id="Group" fill="#000000" fill-rule="nonzero">
            <path d="M57.1859445,11.8743431 C56.4846016,11.8743431 55.8408414,11.4251956 55.604562,10.7744835 C55.3709,10.1317541 55.5716067,9.39464043 56.0993687,8.95288874 C56.6496165,8.49247149 57.4591054,8.43330517 58.0724087,8.80884693 C58.6590621,9.16830579 58.9685096,9.87207974 58.8320481,10.5401661 C58.6760751,11.3047499 57.9783014,11.8743431 57.1859445,11.8743431 Z" id="Path"></path>
            <path d="M59.4590332,33.7799677 C54.6275598,33.7799677 50.6969463,29.9031652 50.6969463,25.1380462 C50.6969463,20.3728097 54.6275598,16.4960072 59.4590332,16.4960072 C64.2906255,16.4960072 68.221358,20.3728097 68.221358,25.1380462 C68.221358,29.9031652 64.2905065,33.7799677 59.4590332,33.7799677 Z M59.4590332,19.8106123 C56.4798427,19.8106123 54.0561349,22.2005089 54.0561349,25.1380462 C54.0561349,28.075466 56.4798427,30.4653626 59.4590332,30.4653626 C62.4382236,30.4653626 64.8620504,28.075466 64.8620504,25.1380462 C64.8620504,22.2005089 62.4382236,19.8106123 59.4590332,19.8106123 Z" id="Shape"></path>
            <path d="M85.7769405,47.8945388 L79.6053609,24.8402189 L79.6053609,14.9145996 C79.6053609,12.1842619 77.8514683,9.85059673 75.3970655,8.95277135 L74.3113225,4.89670898 C73.3739381,1.39421561 69.7163665,-0.705132119 66.1583748,0.217345901 C66.1583748,0.217345901 34.1978396,8.51313274 34.1013529,8.55903359 L12.8358509,8.55903359 C9.28409335,8.55903359 6.39463197,11.4101692 6.39463197,14.914717 L6.39463197,15.8746435 L4.97853797,16.2417329 C3.25171157,16.6891195 1.8060648,17.7726614 0.908131729,19.2924375 C0.0125543176,20.80787 -0.230655221,22.5760507 0.223179667,24.2713301 L6.39463197,47.3262369 L6.39463197,57.2511519 C6.39463197,59.9996856 8.17200978,62.3461466 10.6521463,63.2307065 L11.688837,67.1035177 C12.4766729,70.0473941 15.1866285,72 18.1438091,72 C18.7047644,72 19.2745237,71.9296813 19.8416657,71.7827047 L51.3829418,63.6067179 L73.1643086,63.6067179 C76.7159947,63.6067179 79.6054799,60.7555823 79.6054799,57.2510345 L79.6054799,56.291108 L81.0216096,55.9240185 C82.7483765,55.4762798 84.1942493,54.3927379 85.0920158,52.8729618 C85.9874029,51.3579988 86.2305827,49.5898181 85.7769405,47.8945388 Z M3.47107308,23.4250404 C3.24650058,22.5864987 3.36710301,21.7117999 3.81002574,20.9620077 C4.25562535,20.2077545 4.97383855,19.6699749 5.83211808,19.4473969 L6.39463197,19.3015942 L6.39463197,34.3469782 L3.47107308,23.4250404 Z M29.0744078,60.2922302 L15.9525735,60.2922302 L31.3674838,38.5533043 L38.9532895,49.2513727 L29.0744078,60.2922302 Z M18.987919,68.5769233 C17.2199876,69.0349927 15.4014929,67.9948864 14.9365483,66.2571106 L14.2271153,63.6068353 L38.1614086,63.6068353 L18.987919,68.5769233 Z M33.555745,60.2922302 L48.4723984,43.6212985 L63.3890519,60.2922302 L33.555745,60.2922302 Z M73.1640706,60.2922302 L67.8702702,60.2922302 L49.7314844,40.0203707 C49.4127571,39.6640814 48.9541181,39.4600516 48.4723984,39.4600516 C47.9906788,39.4600516 47.5321588,39.6640814 47.2134314,40.0203707 L41.2407738,46.6952469 L32.7437577,34.7123068 C32.4295513,34.2691464 31.9157091,34.0051284 31.3676028,34.0051284 C30.8193775,34.0051284 30.3057732,34.2691464 29.9915668,34.7123068 L11.9446278,60.1626278 C10.678344,59.7846207 9.75388008,58.6224252 9.75388008,57.2513867 L9.75388008,14.9143648 C9.75388008,13.2375162 11.1363762,11.8734039 12.8358509,11.8734039 L49.5621866,11.8734039 C50.4896962,11.8734039 51.2418404,11.1313597 51.2418404,10.2160427 C51.2418404,9.30072564 50.4896962,8.55868141 49.5621866,8.55868141 L47.1989168,8.55868141 L67.0120025,3.42296289 C68.7813616,2.96454132 70.5983096,4.00501154 71.0633732,5.74276384 L71.8171829,8.55868141 L64.7480748,8.55868141 C63.8205651,8.55868141 63.068421,9.30072564 63.068421,10.2160427 C63.068421,11.1313597 63.8205651,11.8734039 64.7480748,11.8734039 L73.1640706,11.8734039 C74.8633549,11.8734039 76.2460533,13.2375162 76.2460533,14.9143648 L76.2460533,57.2513867 C76.2460533,58.9281178 74.8635928,60.2922302 73.1640706,60.2922302 Z M82.1899196,51.2038612 C81.7443675,51.957997 81.0261305,52.4958939 80.1678629,52.7183546 L79.6053609,52.8641573 L79.6053609,37.8191254 L82.5289912,48.7409458 C82.7532544,49.5793701 82.6328542,50.454069 82.1899196,51.2038612 Z" id="Shape"></path>
        </g>
    </g>
</svg>