<svg width="62px" height="72px" viewBox="0 0 62 72" version="1.1" xmlns="http://www.w3.org/2000/svg" xmlns:xlink="http://www.w3.org/1999/xlink">
    <g id="Page-1" stroke="none" stroke-width="1" fill="none" fill-rule="evenodd" fill-opacity="0.4">
        <g id="Group" fill="#000000" fill-rule="nonzero">
            <path d="M31.0000473,72 C30.9099913,72 30.8200404,71.9917905 30.7311404,71.974748 C22.1040523,70.3338905 14.2712852,65.7416716 8.67594107,59.0432526 C3.08122748,52.3449374 0,43.8711916 0,35.1831678 L0,10.571032 C0,9.9563599 0.403833217,9.41253876 0.99707819,9.229062 L30.530117,0.0791009726 C30.6795447,0.027465399 30.8433688,0.00329522438 31.0000473,0 L31.0017286,0 C31.1628206,0 31.3210753,0.027465399 31.470503,0.0791009726 L61.0029744,9.229062 C61.5961668,9.41308953 62,9.9563599 62,10.571032 L62,35.1831678 C62,43.8711916 58.918762,52.3449374 53.323523,59.0432526 C47.7287043,65.7416716 39.8959372,70.3338905 31.2688491,71.974748 C31.179949,71.9917905 31.0899982,72 31.0000473,72 Z M2.84403458,11.6037643 L2.84403458,35.1831678 C2.84403458,51.6791379 14.6684982,65.925086 31.0000473,69.1605578 C47.3315964,65.925086 59.1554085,51.6791379 59.1554085,35.1831678 L59.1554085,11.6037643 L31.0000473,2.88061636 L2.84403458,11.6037643 Z" id="Shape"></path>
            <path d="M31.0000473,63.9387028 C30.8844562,63.9387028 30.7689702,63.9249856 30.6567418,63.8974475 C24.2364977,62.3176934 18.4434928,58.5999405 14.343477,53.4292128 C10.2290649,48.2392604 7.96326949,41.7594838 7.96326949,35.1830639 L7.96326949,16.3558083 C7.96326949,15.7411362 8.36710271,15.1978554 8.95987481,15.0143371 L30.574567,8.31767422 C30.851145,8.23197345 31.1483191,8.23197345 31.4250021,8.31767422 L53.0396944,15.0143371 C53.6323614,15.1978554 54.0361946,15.7411362 54.0361946,16.3558083 L54.0361946,35.1830639 C54.0361946,39.9901842 52.8319456,44.775274 50.5538555,49.0209279 C50.1856454,49.7069913 49.3252274,49.9674086 48.6313656,49.6036973 C47.9376089,49.2395704 47.673746,48.3886938 48.0414308,47.7025264 C50.1028401,43.8617351 51.1921285,39.5325314 51.1921285,35.1830639 L51.1921285,17.3890601 L30.9994168,11.132914 L10.8073356,17.3890601 L10.8073356,35.1830639 C10.8073356,47.390566 19.0927995,57.9901525 30.9994168,61.0811789 C34.3073184,60.2226124 37.3807803,58.7696378 40.1403598,56.7596652 C40.7725379,56.2993106 41.6629045,56.4328446 42.1284214,57.0579085 C42.5944636,57.6830762 42.4595373,58.5636732 41.8268337,59.0239239 C38.671092,61.3228911 35.1438826,62.961982 31.3427223,63.8974475 C31.2304939,63.9249856 31.1150079,63.9387028 31.0000473,63.9387028 Z" id="Path"></path>
            <path d="M28.4169018,46.583023 C28.0524746,46.583023 27.6892034,46.4456441 27.4114695,46.1709901 L17.8889709,36.7540889 C17.3335032,36.2053005 17.3335032,35.3148313 17.8889709,34.7655233 L22.7154241,29.9925919 C22.9821242,29.7288492 23.3437142,29.5805589 23.7208563,29.5805589 C24.0979985,29.5805589 24.4596935,29.7288492 24.7262886,29.9925919 L28.4169018,33.642175 L37.2728602,24.883903 C37.8283279,24.3351146 38.7287825,24.334595 39.2842502,24.883903 L44.1107034,29.6569383 C44.3774035,29.9205771 44.5273567,30.2781572 44.5273567,30.6512211 C44.5273567,31.0241811 44.3774035,31.3817612 44.1107034,31.6454 L29.4223341,46.1709901 C29.1446002,46.4456441 28.7806985,46.583023 28.4169018,46.583023 Z M20.9051626,35.7598061 L28.4169018,43.1876222 L41.0939862,30.6512211 L38.2782925,27.8672709 L29.4223341,36.6255429 C29.1556339,36.8891816 28.794044,37.0369523 28.4169018,37.0369523 C28.0396545,37.0369523 27.6780646,36.8891816 27.4114695,36.6255429 L23.7208563,32.9758559 L20.9051626,35.7598061 Z" id="Shape"></path>
            <path d="M45.6779083,54.9985751 C45.3040237,54.9985751 44.9368644,54.8491417 44.6724761,54.5865421 C44.4080877,54.3250857 44.2558227,53.9619979 44.2558227,53.5923633 C44.2558227,53.2226248 44.4080877,52.859537 44.6724761,52.5980805 C44.9368644,52.336624 45.3040237,52.1860476 45.6779083,52.1860476 C46.0516879,52.1860476 46.4188472,52.336624 46.6833406,52.5980805 C46.9477289,52.859537 47.0998888,53.2226248 47.0998888,53.5923633 C47.0998888,53.9619979 46.9477289,54.3250857 46.6833406,54.5865421 C46.4188472,54.8491417 46.0516879,54.9985751 45.6779083,54.9985751 Z" id="Path"></path>
        </g>
    </g>
</svg>