<svg width="66px" height="72px" viewBox="0 0 66 72" version="1.1" xmlns="http://www.w3.org/2000/svg" xmlns:xlink="http://www.w3.org/1999/xlink">
    <g id="Page-1" stroke="none" stroke-width="1" fill="none" fill-rule="evenodd" fill-opacity="0.4">
        <g id="Group" fill="#000000" fill-rule="nonzero">
            <path d="M21.616986,55.6925569 C18.8225631,55.6925569 16.5491286,57.9398577 16.5491286,60.7022961 C16.5491286,63.4649596 18.8225631,65.7122603 21.616986,65.7122603 C24.4114088,65.7122603 26.6847296,63.4649596 26.6847296,60.7022961 C26.6848434,57.9400827 24.4114088,55.6925569 21.616986,55.6925569 Z M21.616986,62.8997594 C20.391332,62.8997594 19.3941936,61.9139215 19.3941936,60.7022961 C19.3941936,59.4908957 20.391332,58.5050578 21.616986,58.5050578 C22.84264,58.5050578 23.8396646,59.4908957 23.8396646,60.7022961 C23.8397784,61.9139215 22.84264,62.8997594 21.616986,62.8997594 Z M45.7998109,13.1940922 C44.9308142,13.1940922 44.0744497,13.2486547 43.2340175,13.3544048 L43.2340175,6.42571864 C43.2341313,2.88252992 40.3181672,-3.71791349e-15 36.7340682,-3.71791349e-15 L6.49998345,-3.71791349e-15 C2.91590712,-3.71791349e-15 0,2.88252992 0,6.42571864 L0,65.5741103 C0,69.117524 2.91590712,72 6.49998345,72 L36.7340682,72 C40.318281,72 43.2341313,69.117524 43.2341313,65.5743353 L43.2341313,52.9693809 C44.0825296,53.076481 44.9394632,53.131831 45.8000385,53.131831 C56.9382404,53.131831 66,44.1737904 66,33.1630741 C66,22.1522453 56.9382404,13.1940922 45.7998109,13.1940922 Z M31.1934748,2.81249864 L29.9038637,6.73580249 L13.330222,6.73580249 L12.040611,2.81249864 L31.1934748,2.81249864 Z M40.3890663,65.5743353 C40.3890663,67.566711 38.7495122,69.187499 36.7340682,69.187499 L6.49998345,69.187499 C4.48467596,69.187499 2.84492844,67.566711 2.84492844,65.5743353 L2.84492844,6.42571864 C2.84492844,4.43334295 4.48467596,2.81249864 6.49998345,2.81249864 L9.04919583,2.81249864 L10.9436677,8.57658438 C11.1341733,9.15595958 11.6803119,9.54830346 12.2966668,9.54830346 L30.9375327,9.54830346 C31.5538876,9.54830346 32.1000263,9.15595958 32.2905318,8.57658438 L34.1848899,2.81249864 L36.7339544,2.81249864 C38.7493984,2.81249864 40.3890663,4.43334295 40.3890663,6.42571864 L40.3890663,13.922755 C31.8696898,16.2669183 25.5998494,24.0042209 25.5998494,33.1628491 C25.5998494,36.4756377 26.4326568,39.7373514 28.0136025,42.6350149 L25.6484431,51.3614179 C25.5167735,51.8466306 25.6572059,52.3645807 26.0165945,52.7197434 C26.2868757,52.9869309 26.6501336,53.131606 27.0226095,53.131606 C27.1452887,53.131606 27.2689921,53.116081 27.3907609,53.083681 L36.2180872,50.7454802 C37.5426356,51.4517554 38.9430904,52.0053681 40.3890663,52.4019307 L40.3890663,65.5743353 Z M45.7998109,50.319105 C42.7475113,50.319105 39.7460816,49.5250797 37.1203142,48.0224167 C36.9018132,47.8973167 36.6556582,47.8331917 36.4075685,47.8331917 C36.2844341,47.8331917 36.1606169,47.8489417 36.0395309,47.8811167 L29.0341842,49.7365798 L30.9112443,42.8114149 C31.0091146,42.4507398 30.957562,42.0663272 30.7684221,41.7431146 C29.2483607,39.1469512 28.4449144,36.1798751 28.4449144,33.1627366 C28.4449144,23.7027208 36.2303778,16.0064807 45.7998109,16.0064807 C55.3693577,16.0064807 63.1547074,23.7027208 63.1547074,33.1627366 C63.1547074,42.6227524 55.3693577,50.319105 45.7998109,50.319105 Z M57.0489703,27.6422472 C56.6326804,27.3854096 56.1119197,27.3586346 55.6709346,27.5714847 L53.237835,28.7465476 L53.237835,27.6942222 C53.237835,26.4604343 52.2222606,25.4564839 50.9740737,25.4564839 L36.1455949,25.4564839 C34.8972942,25.4564839 33.8817198,26.4604343 33.8817198,27.6942222 L33.8817198,38.6313635 C33.8817198,39.8652639 34.8972942,40.8691018 36.1455949,40.8691018 L50.9741875,40.8691018 C52.2224882,40.8691018 53.2379488,39.8652639 53.2379488,38.6313635 L53.2379488,37.5790381 L55.6710484,38.754101 C55.8688373,38.8496136 56.0824448,38.8968636 56.2955971,38.8968636 C56.5579121,38.8968636 56.8193166,38.8252011 57.0490841,38.683451 C57.465374,38.4265009 57.7182434,37.9756008 57.7182434,37.4906131 L57.7182434,28.8351976 C57.7182434,28.3500974 57.4650326,27.8993098 57.0489703,27.6422472 Z M50.3928838,38.0568258 L36.7268986,38.0568258 L36.7268986,28.2689849 L50.3928838,28.2689849 L50.3928838,38.0568258 Z M54.8729508,35.2384748 L53.237835,34.4487246 L53.237835,31.8771987 L54.8729508,31.0874484 L54.8729508,35.2384748 Z" id="Shape"></path>
        </g>
    </g>
</svg>
