<svg width="68px" height="72px" viewBox="0 0 68 72" version="1.1" xmlns="http://www.w3.org/2000/svg" xmlns:xlink="http://www.w3.org/1999/xlink">
    <g id="Page-1" stroke="none" stroke-width="1" fill="none" fill-rule="evenodd">
        <g id="Group" fill="#FFFFFF" fill-rule="nonzero">
            <path d="M31.8750598,63.5625 L61.6250106,63.5625 C62.7966302,63.5625 63.750007,64.50885 63.750007,65.671875 C63.750007,66.8349 62.7966302,67.78125 61.6250106,67.78125 L46.7498054,67.78125 L46.7498054,72 L61.6250106,72 C65.1400993,72 68,69.161175 68,65.671875 C68,62.182575 65.1400993,59.34375 61.6250106,59.34375 L47.7318984,59.34375 C57.2964502,53.852175 63.750007,43.553925 63.750007,31.78125 C63.750007,14.25699 49.4507334,0 31.8750598,0 C14.2991105,0 0,14.25699 0,31.78125 C0,49.3056 14.2991105,63.5625 31.8750598,63.5625 Z M21.2499625,54.984375 C21.2499625,35.669475 36.1250528,19.32075 55.3331831,17.24175 C56.1367764,18.527625 56.8369915,19.8839475 57.4225716,21.2991975 C39.6387632,22.3686675 25.5000704,37.067175 25.5000704,54.984375 C25.5000704,56.2041 25.5666919,57.43755 25.6918944,58.64715 C24.1837212,58.301775 22.7228722,57.831975 21.3193867,57.2508 C21.2746125,56.4966 21.2499625,55.738125 21.2499625,54.984375 Z M36.7944841,35.925525 C42.8542849,40.119975 49.9278813,42.328125 57.3750176,42.328125 C57.3819095,42.328125 57.3890311,42.3279 57.395923,42.3279 C56.7903564,43.78185 56.063263,45.173025 55.2275076,46.4895 C47.6547094,46.097775 40.4687753,43.6446 34.2766504,39.343725 C35.0342978,38.1438 35.8764856,37.001925 36.7944841,35.925525 Z M58.7715423,38.078775 C58.3058809,38.0988 57.8393006,38.109375 57.3750176,38.109375 C51.0475821,38.109375 45.0259164,36.302175 39.8142764,32.863275 C40.9489096,31.867425 42.1588941,30.954825 43.4371082,30.13785 C47.6590742,32.596425 52.4489311,33.890625 57.3750176,33.890625 C58.0582327,33.890625 58.7425964,33.864075 59.4244331,33.814125 C59.317609,35.26965 59.0970688,36.694125 58.7715423,38.078775 Z M57.3750176,29.671875 C54.1342257,29.671875 50.9646498,29.007 48.0356006,27.735075 C51.3526627,26.354925 54.9722783,25.55415 58.7662585,25.46235 C59.0823661,26.80155 59.3003793,28.177875 59.4120277,29.583675 C58.7352451,29.64195 58.054557,29.671875 57.3750176,29.671875 Z M30.0477926,59.2821 C29.8527523,57.8853 29.7500633,56.425275 29.7500633,54.984375 C29.7500633,53.84565 29.8176037,52.72245 29.9446441,51.6168 C33.9458402,54.0261 38.2024953,55.877175 42.6700419,57.151575 C39.3520609,58.5621 35.7032697,59.34375 31.8750598,59.34375 C31.2609933,59.34375 30.6519807,59.321475 30.0477926,59.2821 Z M48.0633979,54.1008 C41.887354,52.915725 36.0928907,50.588775 30.8081967,47.173725 C31.1964393,45.7704 31.686452,44.408475 32.2699646,43.096275 C38.2337385,47.1384 45.0102948,49.6449 52.1636073,50.46615 C50.9214607,51.807825 49.5479089,53.025975 48.0633979,54.1008 Z M52.4257285,13.383 C32.22287,16.7553225 16.9999696,34.226325 16.9999696,54.984375 C16.9999696,54.988875 17.0001074,54.993375 17.0001074,54.997875 C15.5182842,54.0495 14.1332,52.963425 12.8621764,51.758775 C14.2600106,31.5945 28.7916325,14.54625 48.5867213,9.8499375 C49.9752055,10.90575 51.260771,12.08898 52.4257285,13.383 Z M34.4259745,10.8915525 C34.1429479,9.440865 34.0000563,7.96149 34.0000563,6.46875 C34.0000563,5.7555 34.0329076,5.0226975 34.0940156,4.3079175 C37.4889559,4.57848 40.7122884,5.4645525 43.6525944,6.8530725 C40.4150186,7.902 37.3290643,9.26073 34.4259745,10.8915525 Z M30.6083322,13.2630525 C29.3549288,14.120865 28.1428768,15.032115 26.9760814,15.9936975 C25.9967452,12.9265425 25.5000704,9.734625 25.5000704,6.46875 C25.5000704,5.9641875 25.5129352,5.45724 25.5370568,4.9518225 C26.9317437,4.623885 28.3664034,4.4015625 29.8327659,4.294125 C29.7792389,5.0193225 29.7500633,5.753385 29.7500633,6.46875 C29.7500633,8.77275 30.0383737,11.0513025 30.6083322,13.2630525 Z M23.5583979,19.07973 C22.4428322,20.1818025 21.3796447,21.3339375 20.3715005,22.532175 C18.4128051,18.1075725 17.2996056,13.4151975 17.053106,8.5317075 C18.3800916,7.6865625 19.7839906,6.9519375 21.2515247,6.3396675 C21.251249,6.3825525 21.2499625,6.42573 21.2499625,6.46875 C21.2499625,10.817865 22.0274815,15.0525 23.5583979,19.07973 Z M13.0474761,11.63151 C13.6414873,16.76349 15.1225983,21.68577 17.4717188,26.321625 C16.5490568,27.6534 15.6908339,29.0313 14.8980609,30.448125 C12.2620774,25.875225 10.4207048,20.9536875 9.40410646,15.76701 C10.479056,14.2697925 11.7009405,12.884895 13.0474761,11.63151 Z M6.36124933,21.216645 C7.77890915,26.056125 9.89115565,30.649725 12.6726267,34.935075 C10.966266,38.85165 9.74594373,43.01235 9.08223267,47.336175 C6.03556204,42.90615 4.24999067,37.548225 4.24999067,31.78125 C4.24999067,28.0404 5.00210158,24.4719 6.36124933,21.216645 Z" id="Shape"></path>
        </g>
    </g>
</svg>