<svg width="72px" height="72px" viewBox="0 0 72 72" version="1.1" xmlns="http://www.w3.org/2000/svg" xmlns:xlink="http://www.w3.org/1999/xlink">
    <g id="Page-1" stroke="none" stroke-width="1" fill="none" fill-rule="evenodd">
        <g id="Group" fill="#FFFFFF" fill-rule="nonzero">
            <path d="M36,72 C26.384175,72 17.3436975,68.255325 10.5440625,61.455825 C3.7446975,54.656325 0,45.615825 0,36 C0,26.384175 3.7446975,17.3436975 10.5440625,10.5440625 C17.3436975,3.7446975 26.384175,0 36,0 C45.615825,0 54.656325,3.7446975 61.455825,10.5440625 C68.255325,17.3436975 72,26.384175 72,36 C72,45.615825 68.255325,54.656325 61.455825,61.455825 C54.656325,68.255325 45.615825,72 36,72 L36,72 Z M36,5.625 C19.251135,5.625 5.625,19.251135 5.625,36 C5.625,52.748775 19.251135,66.375 36,66.375 C52.748775,66.375 66.375,52.748775 66.375,36 C66.375,19.251135 52.748775,5.625 36,5.625 Z M49.12785,48.39345 C49.579875,47.940525 50.253525,47.6604 50.886675,47.67165 C51.498,47.67885 52.128225,47.94885 52.57215,48.393675 C53.6697,49.492575 55.450575,49.493925 56.5497,48.3966 C57.648825,47.298825 57.650175,45.51795 56.5524,44.41905 C55.0719,42.9363 53.030925,42.07185 50.9535,42.0471 C48.793275,42.027525 46.678275,42.886125 45.1476,44.41905 C44.616375,44.95095 43.98435,45.281475 43.49835,45.281475 C43.008525,45.281475 42.37425,44.95095 41.843025,44.41905 C40.353075,42.927075 38.294775,42.0624 36.1962,42.047325 C36.177075,42.0471 36.158175,42.0471 36.13905,42.0471 C34.02045,42.0471 31.945275,42.909525 30.438,44.41905 C29.981025,44.8767 29.3769,45.139725 28.7811,45.14085 C28.779975,45.14085 28.77885,45.14085 28.777725,45.14085 C28.18215,45.14085 27.5985,44.884575 27.13365,44.41905 C25.60545,42.888375 23.496525,42.0255 21.330855,42.0471 C19.2535425,42.0696 17.211645,42.93405 15.728625,44.41905 C14.6310525,45.518175 14.6323125,47.298825 15.7314375,48.3966 C16.8305625,49.493925 18.6113025,49.493025 19.708875,48.393675 C20.1538125,47.948175 20.7826875,47.6784 21.3914475,47.67165 C21.3991875,47.67165 21.4069275,47.67165 21.414645,47.67165 C22.04325,47.67165 22.70745,47.946825 23.1534,48.39345 C24.681375,49.923675 26.678025,50.76585 28.777725,50.765625 L28.790775,50.765625 C30.865275,50.76225 32.9166,49.897575 34.418475,48.393675 C34.867575,47.9439 35.531775,47.67435 36.155475,47.671875 C36.768825,47.676375 37.423125,47.9529 37.863225,48.39345 C39.45735,49.990275 41.5116,50.90625 43.49835,50.90625 C45.4815,50.90625 47.533275,49.990275 49.12785,48.39345 L49.12785,48.39345 Z M23.625,23.203125 C25.566525,23.203125 27.140625,24.777225 27.140625,26.71875 C27.140625,28.660275 25.566525,30.234375 23.625,30.234375 C21.683385,30.234375 20.109375,28.660275 20.109375,26.71875 C20.109375,24.777225 21.683385,23.203125 23.625,23.203125 Z M44.71875,26.71875 C44.71875,28.660275 46.29285,30.234375 48.234375,30.234375 C50.1759,30.234375 51.75,28.660275 51.75,26.71875 C51.75,24.777225 50.1759,23.203125 48.234375,23.203125 C46.29285,23.203125 44.71875,24.777225 44.71875,26.71875 Z" id="Shape"></path>
        </g>
    </g>
</svg>